<svg version="1.1" id="Layer_1" xmlns="http://www.w3.org/2000/svg" xmlns:xlink="http://www.w3.org/1999/xlink" x="0px" y="0px"
	 width="100%" viewBox="0 0 1024 1024" enable-background="new 0 0 1024 1024" xml:space="preserve">
<path fill="#000000" opacity="1.000000" stroke="none" 
	d="
M1025.000000,550.531372 
	C1023.884888,552.153320 1023.486511,553.628662 1023.495300,555.131958 
	C1023.585693,570.515625 1020.456909,585.552917 1018.077881,600.611328 
	C1014.633545,622.413147 1009.468567,643.869995 1002.517761,664.893005 
	C997.244873,680.841309 992.019165,696.793457 985.421692,712.247009 
	C973.455322,740.276428 959.273865,767.176086 942.541260,792.630859 
	C928.038330,814.693787 911.812622,835.528748 894.187805,855.198486 
	C878.319336,872.908142 861.232788,889.489441 842.900757,904.584229 
	C819.053162,924.220764 793.982544,942.195679 766.848022,957.245178 
	C747.358887,968.054321 727.571594,978.178406 706.915649,986.465149 
	C679.571594,997.434875 651.730408,1007.032104 622.701843,1012.564453 
	C603.141785,1016.292297 583.560486,1019.752502 563.669983,1021.720459 
	C534.067566,1024.649170 504.475372,1024.473511 474.900452,1022.971863 
	C458.681793,1022.148315 442.558289,1019.565063 426.455505,1016.854553 
	C404.590363,1013.174072 382.978912,1008.589783 361.888519,1001.984314 
	C342.895050,996.035583 324.119568,989.316101 305.898499,981.137634 
	C279.641602,969.352295 254.276489,955.888367 230.307587,940.020569 
	C205.069717,923.312744 181.399460,904.540344 159.466766,883.567444 
	C139.595596,864.565857 121.333206,844.201111 104.629951,822.390320 
	C89.756180,802.968445 76.149597,782.663452 64.247185,761.337830 
	C50.384827,736.500610 38.664383,710.572266 29.181591,683.732361 
	C24.155087,669.505432 20.353874,654.875000 16.348688,640.305542 
	C10.034009,617.335083 6.250144,593.983826 3.046538,570.470520 
	C2.238804,564.542053 3.460244,558.441223 1.221433,552.314941 
	C1.000000,525.312439 1.000000,498.624878 1.253237,471.188477 
	C1.826499,469.679840 2.381673,468.935242 2.432060,468.157990 
	C3.602516,450.101929 6.300482,432.277985 9.475338,414.460968 
	C12.860161,395.465668 18.095486,376.959595 23.668165,358.610321 
	C27.979980,344.412750 32.546951,330.202820 39.214092,316.692444 
	C43.579308,307.846680 46.876541,298.380310 51.211788,289.417480 
	C67.643089,255.446671 87.831459,223.819107 111.087967,194.178787 
	C127.507881,173.251663 145.784988,153.923599 165.424438,136.012360 
	C188.284042,115.164314 212.923721,96.575798 239.137527,80.046799 
	C267.631378,62.080120 297.582245,47.171490 328.971344,34.984222 
	C349.923248,26.849358 371.453094,20.761467 393.185120,15.225459 
	C409.307465,11.118474 425.659637,8.114535 442.101715,5.893367 
	C456.556244,3.940705 471.068848,1.765450 485.780975,2.539560 
	C488.211060,2.667423 490.786255,2.407063 493.000000,1.000000 
	C505.687561,1.000000 518.375122,1.000000 531.862183,1.213391 
	C542.628906,3.812426 552.856934,2.277010 562.955872,3.563063 
	C578.617737,5.557548 594.302551,7.322499 609.802551,10.353917 
	C625.951233,13.512209 641.808411,17.831194 657.717712,22.047512 
	C679.187866,27.737589 699.589783,36.071060 719.940857,44.587677 
	C739.748474,52.876858 758.707336,62.999134 777.124695,74.025421 
	C788.525452,80.850906 799.943970,87.815620 810.487488,95.854996 
	C820.493286,103.484306 830.525757,111.135712 840.309570,119.101540 
	C857.533020,133.124435 873.676575,148.231232 888.666260,164.477463 
	C907.475281,184.863297 924.542297,206.681488 940.105347,229.748672 
	C956.436768,253.954727 970.198669,279.479736 982.182861,305.988281 
	C991.214661,325.966217 998.444702,346.686005 1004.848572,367.650116 
	C1012.083740,391.335510 1016.905029,415.596069 1020.325073,440.092865 
	C1021.743469,450.252350 1023.827271,460.392792 1023.531860,470.770721 
	C1023.472473,472.856934 1023.648804,475.129852 1025.000000,477.000000 
	C1025.000000,501.354218 1025.000000,525.708435 1025.000000,550.531372 
M861.629578,852.143433 
	C874.905823,839.334778 886.756531,825.300171 898.061462,810.731262 
	C912.848083,791.675537 926.165955,771.716736 937.969482,750.674866 
	C949.203186,730.648865 958.938049,709.969421 967.528625,688.690186 
	C973.878967,672.960022 979.434082,656.947571 983.429077,640.520813 
	C989.154907,616.977112 994.939880,593.452759 997.327087,569.159363 
	C998.577942,556.430359 999.827026,543.663269 1000.365845,530.941650 
	C1001.435608,505.684143 1000.052185,480.466888 997.049133,455.289368 
	C995.927917,445.889801 994.825439,436.457733 993.029419,427.224609 
	C988.020142,401.472870 982.065796,375.943451 972.970886,351.217346 
	C966.603210,333.905975 959.654602,316.844666 951.611267,300.284912 
	C940.259827,276.914276 927.149353,254.532990 911.846130,233.464279 
	C902.755798,220.949127 893.669861,208.440430 883.446960,196.818756 
	C870.732300,182.364258 857.355286,168.582123 843.289062,155.390945 
	C830.150208,143.069427 816.227112,131.783890 801.844666,121.063026 
	C785.973267,109.232216 769.158875,98.800415 751.920654,89.021759 
	C732.961914,78.267052 713.484375,68.663055 693.098389,60.963474 
	C669.476990,52.041897 645.742126,43.655434 620.865723,38.518448 
	C599.191589,34.042744 577.426208,30.594738 555.474976,28.034599 
	C543.357605,26.621372 531.174255,26.958948 519.039429,26.662268 
	C503.749908,26.288456 488.383453,26.685989 473.129608,27.819418 
	C453.732056,29.260738 434.538422,32.492985 415.398560,36.124012 
	C396.891571,39.634979 378.734070,44.443333 360.951538,50.390305 
	C337.939484,58.086185 315.395538,67.100288 293.710510,78.154327 
	C278.752441,85.779289 264.278198,94.260361 250.019577,103.045242 
	C237.460327,110.783127 225.404648,119.396561 213.878265,128.662979 
	C205.992172,135.002853 198.140915,141.395966 190.481293,148.005386 
	C178.515427,158.330597 167.358490,169.493164 156.418015,180.909805 
	C143.964340,193.905502 132.618362,207.860504 121.834045,222.149857 
	C109.546570,238.430878 98.576805,255.709793 88.407898,273.483459 
	C78.643730,290.549744 69.721832,308.076447 62.347458,326.192383 
	C52.665199,349.977875 44.332298,374.330078 38.538929,399.472687 
	C33.795200,420.059967 29.606865,440.830780 27.726439,461.774536 
	C25.812441,483.092255 23.973282,504.537476 25.135300,526.088928 
	C26.076151,543.538513 27.185879,560.980591 29.683516,578.240662 
	C33.179482,602.399658 37.446178,626.436035 44.872425,649.820679 
	C50.707630,668.195312 56.993103,686.347534 64.748589,704.027161 
	C71.156128,718.633850 77.870110,733.033752 85.557480,747.025940 
	C95.583588,765.274902 106.880104,782.653198 119.112518,799.477905 
	C138.440720,826.062256 160.231857,850.422302 184.588013,872.470154 
	C203.585892,889.667603 223.673767,905.431335 245.412033,919.115234 
	C259.176758,927.779846 272.802185,936.581238 287.264008,944.120911 
	C305.442535,953.598572 324.251495,961.564392 343.317291,968.940796 
	C364.449188,977.116577 386.305603,982.907776 408.393250,987.938660 
	C436.356903,994.307922 464.635254,998.103882 493.280426,998.834778 
	C520.075867,999.518555 546.840576,999.179260 573.514526,995.720337 
	C598.607483,992.466431 623.260986,987.222534 647.581360,980.403442 
	C674.217834,972.935059 699.783630,962.652222 724.800659,950.836304 
	C743.647522,941.934509 761.590088,931.495178 779.058960,920.266785 
	C802.578491,905.149231 824.749512,888.195068 844.901611,868.734070 
	C850.382019,863.441711 856.330811,858.617920 861.629578,852.143433 
z"/>
<path fill="#000000" opacity="1.000000" stroke="none" 
	d="
M375.940369,288.079102 
	C364.361938,271.747467 347.410034,272.453552 333.543793,282.923370 
	C321.500854,292.016479 312.810669,303.845245 304.891052,316.404602 
	C295.858795,330.728363 288.099640,345.779175 281.953857,361.484131 
	C275.108643,378.976227 271.262573,397.423920 274.615234,416.196198 
	C277.073944,429.962891 285.327698,440.697113 297.243134,448.385376 
	C312.020935,457.920441 328.661194,461.500244 345.738281,463.656372 
	C350.024078,464.197449 354.359039,464.420837 358.679291,464.603119 
	C369.748047,465.070007 376.772644,459.599518 382.016632,450.049744 
	C391.271606,433.195740 399.851379,415.896820 411.565735,400.496765 
	C422.739929,385.806854 434.386200,371.518036 446.461609,357.541626 
	C460.853333,340.884247 476.068329,325.147705 493.524170,311.720001 
	C502.067139,305.148407 510.959534,299.417358 522.100586,297.359558 
	C533.498169,295.254364 541.412964,301.912445 544.960449,309.143585 
	C549.844055,319.098236 549.521362,329.550873 546.965881,339.874329 
	C543.732666,352.935913 537.025635,364.469757 529.363586,375.396393 
	C521.551025,386.537872 513.786560,397.738647 505.420990,408.460938 
	C492.866302,424.552673 478.073975,438.353607 461.057739,449.754303 
	C447.954285,458.533539 435.026459,467.575867 422.066620,476.567627 
	C419.822876,478.124390 418.500092,480.285339 418.141968,483.191925 
	C416.745941,494.521790 417.529449,505.827759 418.472961,517.108643 
	C418.791595,520.918396 420.307251,523.807983 425.001587,525.273071 
	C434.797974,528.330383 443.306305,525.647339 451.937134,521.638611 
	C461.490784,517.201355 469.843262,510.817688 478.569641,505.105499 
	C487.645264,499.164734 497.355804,498.951630 507.323853,499.931702 
	C511.956116,500.387146 512.947388,504.682251 513.199524,508.629791 
	C513.423950,512.143799 511.940521,515.493958 511.490814,518.919189 
	C508.684418,540.295776 510.018036,561.649353 511.843475,583.703125 
	C517.246704,582.133118 520.839783,578.835693 524.696655,576.214722 
	C531.830811,571.366638 538.615845,566.007751 545.673889,561.042908 
	C547.725891,559.599487 548.618530,558.184875 548.036377,555.658752 
	C546.954285,550.962952 546.303040,546.162781 545.112305,541.497986 
	C541.673828,528.027344 541.829041,514.379517 543.724548,500.829620 
	C545.194702,490.320587 550.579895,481.232056 556.247009,472.315247 
	C567.273254,454.966095 581.999817,441.545166 599.164368,430.595154 
	C601.831543,428.893585 604.889771,427.909027 608.009277,427.278564 
	C616.354736,425.592010 621.532227,430.510101 619.919312,438.834656 
	C618.067566,448.391357 613.440796,456.956757 609.775024,465.857849 
	C606.047791,474.908142 601.914124,483.810455 600.915527,493.735413 
	C600.349792,499.357422 602.698730,503.917480 606.568726,507.455078 
	C610.446960,511.000275 615.067627,509.514160 619.223816,507.542511 
	C631.741150,501.604553 641.503845,491.980194 651.576660,482.833984 
	C662.626465,472.800720 673.553223,462.626862 684.356873,452.328888 
	C698.622559,438.731049 711.636230,424.052216 719.066345,405.477356 
	C727.660583,383.992065 728.083557,362.433472 717.615906,341.287201 
	C714.463318,334.918488 706.029053,333.560242 700.144409,338.802979 
	C694.423218,343.900055 690.565796,350.316742 690.031128,358.235229 
	C689.473389,366.494324 693.003235,370.625427 701.281921,371.642944 
	C701.776428,371.703735 702.285095,371.651642 702.778992,371.715729 
	C705.271118,372.039185 708.250854,372.239410 709.145569,374.818481 
	C710.036438,377.386749 707.347473,378.740845 705.687683,380.340424 
	C694.564209,391.060486 682.405334,400.359619 667.594116,405.224182 
	C656.483276,408.873444 644.931091,408.906097 633.752747,405.259583 
	C625.187805,402.465637 621.409424,394.702942 623.093262,385.874237 
	C624.887573,376.466705 629.446289,368.366913 634.817505,360.707275 
	C647.887329,342.068848 663.283081,325.536774 681.253418,311.556061 
	C696.113159,299.995361 712.299133,290.891785 731.354553,288.365936 
	C744.826782,286.580200 757.133057,289.689240 769.193604,296.306091 
	C779.500916,301.961060 788.697449,308.235321 795.160278,318.172180 
	C797.013550,321.021667 798.172485,323.930664 797.842712,327.647217 
	C793.748291,327.309143 791.893738,324.107880 788.295105,321.115631 
	C791.924561,330.403015 792.406067,338.903534 792.553467,347.589447 
	C792.874023,366.464294 787.688904,383.546204 778.326599,399.789795 
	C770.360596,413.610870 759.930847,425.403900 749.473999,437.211639 
	C737.887146,450.295349 725.779785,462.918427 712.927002,474.754761 
	C695.157104,491.119446 675.972412,505.719238 655.954651,519.256897 
	C644.022766,527.326233 632.426636,535.890442 620.622559,544.150757 
	C613.754028,548.957275 614.653076,555.945374 615.656982,562.617126 
	C619.919434,590.945374 628.878540,618.126038 636.101013,645.742981 
	C641.024109,664.567749 644.104614,683.897217 639.681274,703.359680 
	C635.763672,720.596985 625.237549,733.756836 612.270264,745.257324 
	C605.486145,751.273987 597.922363,756.054382 590.035767,760.399963 
	C588.356018,761.325623 586.663330,763.251099 584.634521,761.817200 
	C582.720215,760.464172 582.596191,758.055237 582.834290,755.869629 
	C583.445801,750.257568 584.365417,744.683960 585.031860,739.074341 
	C586.446594,727.165588 584.892578,715.573792 583.385254,703.851135 
	C580.743652,683.307617 574.575256,663.666260 569.134644,643.802612 
	C565.234680,629.563782 560.520569,615.535828 557.594666,601.027832 
	C557.142883,598.787598 556.243713,596.600708 555.290955,594.507690 
	C554.086914,591.862610 552.307190,592.103577 550.007629,593.487793 
	C543.150574,597.615417 537.160278,602.922974 530.589905,607.433655 
	C526.884949,609.977173 523.442261,612.960144 519.549194,615.156433 
	C515.441895,617.473633 514.752625,620.679504 515.544922,624.801819 
	C519.677307,646.301514 523.804138,667.802185 527.898010,689.309204 
	C530.942078,705.301331 534.760376,721.203186 536.716187,737.329346 
	C538.691162,753.613647 539.820190,770.092712 533.547913,786.128357 
	C529.209473,797.219910 521.339111,805.133850 512.199463,811.825500 
	C497.142120,822.849792 482.559723,834.474365 468.456940,846.632568 
	C454.912018,858.309875 439.754456,859.273010 423.524231,855.749939 
	C399.738220,850.586853 382.269043,836.443848 369.236816,816.431030 
	C364.203430,808.701538 361.665710,799.838196 359.017273,791.068115 
	C354.440155,775.911499 354.568634,760.301941 356.367371,744.980103 
	C358.008423,731.001709 362.268951,717.432495 368.788971,704.657349 
	C383.231598,676.358887 403.457489,653.306885 429.609497,635.280273 
	C435.370239,631.309265 441.082336,627.304382 447.212891,623.955566 
	C449.741516,622.574341 450.541382,620.751831 450.773224,617.975098 
	C451.971985,603.618286 447.921844,589.975098 445.202423,576.174866 
	C444.219849,571.188721 440.423035,570.205383 435.451050,572.548828 
	C426.463776,576.784668 417.510895,581.131775 408.321503,584.889099 
	C400.139099,588.234680 391.548462,589.951416 382.552551,589.242432 
	C372.964111,588.486816 364.751312,582.317261 361.655548,573.268921 
	C355.359314,554.866516 355.657104,536.038513 358.044128,517.100220 
	C358.317657,514.930054 358.372894,512.825378 358.363190,510.666992 
	C358.332733,503.893616 357.467407,503.298370 350.853943,505.439850 
	C337.390076,509.799622 323.706848,513.310425 309.516785,513.971191 
	C284.253815,515.147705 262.158936,507.202271 244.815567,488.673187 
	C229.293854,472.090240 221.573044,451.950897 220.584091,429.076721 
	C219.682419,408.221344 224.761612,388.987915 233.684280,370.343292 
	C240.434814,356.237549 247.312820,342.195343 255.533615,328.927887 
	C266.473633,311.271912 278.488129,294.355835 292.056366,278.525970 
	C298.961761,270.469574 306.521637,263.089050 313.681488,255.307510 
	C315.222229,253.632965 317.381409,252.534439 319.225464,251.130783 
	C333.793121,240.042023 349.291321,230.303894 366.052246,223.100601 
	C375.977600,218.834976 387.012115,218.614899 397.990265,219.971161 
	C418.987579,222.565155 431.621887,235.312424 441.028351,253.079346 
	C449.409180,268.909027 447.953217,283.963623 441.271454,299.962708 
	C428.622101,330.250793 408.380096,355.194550 387.555878,379.883484 
	C373.565094,396.470795 357.691559,411.031799 340.376343,423.984406 
	C332.238373,430.072052 323.292114,435.233887 312.790009,435.904236 
	C304.350922,436.442902 299.283173,434.341675 295.679626,426.087372 
	C290.632050,414.525360 291.273376,402.687531 294.227936,390.854858 
	C300.803436,364.520874 315.411041,343.063782 334.952576,324.677948 
	C336.178406,323.524597 337.573242,322.226837 339.346466,323.199738 
	C341.207245,324.220612 341.438599,326.234039 340.948212,328.063690 
	C339.877380,332.059052 338.531616,335.979767 337.371918,339.952515 
	C335.608856,345.992065 335.519012,352.251099 336.621338,358.280670 
	C338.717682,369.747681 351.228668,373.809967 360.368622,366.314850 
	C365.377411,362.207520 368.393127,356.584534 371.384338,351.057312 
	C378.301422,338.275879 383.873840,325.094025 383.807770,310.086151 
	C383.771332,301.809998 380.623688,294.929962 375.940369,288.079102 
M473.678253,800.271423 
	C475.309082,797.742920 476.981812,795.226196 476.595673,791.990295 
	C475.257263,780.773743 474.380798,769.477356 472.465302,758.360107 
	C469.453369,740.879272 466.524109,723.379211 462.769104,706.020935 
	C460.101776,693.690674 457.867737,681.274841 453.924286,669.263367 
	C452.238342,664.128235 451.407867,663.792053 446.876099,666.417908 
	C438.843292,671.072449 431.179779,676.139465 424.035492,682.231140 
	C412.117035,692.393494 404.532928,704.907227 400.321350,719.755005 
	C397.709259,728.963867 397.756592,738.486755 396.852509,747.902893 
	C395.607300,760.872070 399.134827,772.057983 408.258728,781.583984 
	C420.646149,794.517395 436.092468,800.792603 453.491394,802.508728 
	C459.997681,803.150513 466.826050,804.126770 473.678253,800.271423 
M478.272186,389.711304 
	C480.061462,385.979492 481.886230,382.264069 483.622101,378.507599 
	C484.297852,377.045197 485.500610,375.317444 483.960968,373.929321 
	C482.314941,372.445282 481.036102,374.231018 479.620300,374.991425 
	C468.449677,380.991211 460.848083,390.601410 454.025909,400.817078 
	C451.892303,404.011993 449.340668,407.700714 450.693665,412.762939 
	C455.798553,411.608124 459.693390,408.998108 463.324677,405.871063 
	C468.736542,401.210724 473.397491,395.846344 478.272186,389.711304 
z"/>
<path fill="#000000" opacity="1.000000" stroke="none" 
	d="
M755.659485,709.630432 
	C735.090698,734.377136 711.850769,755.770325 685.313232,773.255737 
	C656.109131,792.498047 624.489929,806.551147 590.392029,815.024536 
	C570.647522,819.931274 550.637573,822.549438 530.468750,824.489685 
	C527.500366,824.775208 525.020874,824.336304 523.792603,821.465027 
	C522.557190,818.577271 525.060913,817.316406 526.824585,815.895874 
	C530.966797,812.559814 535.164490,809.292725 539.333313,805.989624 
	C542.009766,803.869141 545.063477,802.569946 548.417175,802.124939 
	C564.580811,799.980164 580.756531,797.498718 596.207153,792.342407 
	C612.574890,786.879944 628.979431,781.353027 644.288269,773.037598 
	C660.204163,764.392456 675.673157,755.148071 690.136902,744.197571 
	C705.710083,732.407227 719.899902,719.198669 732.777527,704.527649 
	C745.978516,689.488403 757.547668,673.256836 767.298889,655.836426 
	C777.128967,638.275085 785.186340,619.879089 791.498474,600.696655 
	C802.935486,565.939575 806.169617,530.218018 804.576721,493.931610 
	C803.788025,475.963898 800.769226,458.215973 796.293823,440.836426 
	C794.200073,432.705841 791.789429,424.531342 788.392517,416.733185 
	C785.829712,410.849823 785.690247,405.091217 790.747559,400.144104 
	C791.930176,398.987335 792.944153,397.643433 793.942688,396.315674 
	C798.371643,390.426331 800.401123,390.469849 803.319885,397.433960 
	C808.976807,410.931274 813.650574,424.716797 816.723755,439.137177 
	C819.632080,452.783844 822.577637,466.446442 823.987183,480.267670 
	C825.828613,498.324524 825.856689,516.522461 824.807983,534.687378 
	C823.225586,562.095032 817.272583,588.698242 808.779175,614.636780 
	C804.197754,628.628296 797.977478,642.123474 791.259644,655.341248 
	C781.435547,674.670776 769.291443,692.406006 755.659485,709.630432 
z"/>
<path fill="#000000" opacity="1.000000" stroke="none" 
	d="
M229.422470,583.695007 
	C234.606262,602.886414 240.761673,621.313232 249.355301,638.827637 
	C262.456482,665.528564 279.021912,689.855713 299.374359,711.610413 
	C311.206268,724.257507 324.227051,735.536377 337.824829,746.188965 
	C343.016022,750.255737 345.469513,763.912476 341.824432,769.321045 
	C339.670166,772.517456 337.143036,771.239380 334.941040,769.603943 
	C326.787994,763.548706 318.458679,757.685913 310.701996,751.149902 
	C284.052856,728.694458 261.926971,702.259766 243.999191,672.456055 
	C234.064423,655.940247 225.772903,638.565918 219.280914,620.280884 
	C213.367569,603.625610 208.423096,586.815796 205.051590,569.469788 
	C202.564484,556.674011 202.017441,543.722839 200.763229,530.820618 
	C198.571625,508.275146 201.203873,485.974182 203.940247,463.671692 
	C204.061279,462.685303 204.433350,461.731598 204.586136,460.746765 
	C204.879608,458.855316 205.828949,457.728058 207.830643,457.599915 
	C209.800659,457.473755 211.017319,458.444153 211.595245,460.214355 
	C215.918243,473.456085 222.740509,485.656433 221.488174,500.779114 
	C219.815948,520.972351 220.515884,541.406738 224.462173,561.454468 
	C225.900284,568.760254 226.803726,576.223816 229.422470,583.695007 
z"/>
<path fill="#000000" opacity="1.000000" stroke="none" 
	d="
M468.098022,203.841675 
	C485.562256,201.370087 502.689056,200.569534 519.838318,201.061737 
	C543.652893,201.745285 567.183167,204.581680 590.356201,210.519974 
	C613.163330,216.364487 634.886414,224.848129 655.918274,235.290131 
	C676.522949,245.520035 695.313232,258.490997 713.074829,273.014008 
	C717.117554,276.319641 716.947449,278.816742 712.535339,281.486908 
	C709.408936,283.378998 706.102661,284.974365 702.872253,286.694031 
	C698.688416,288.921326 695.494812,285.974243 693.018127,283.823334 
	C681.909912,274.176056 669.528076,266.411713 656.859436,259.190277 
	C643.305908,251.464355 629.229126,244.673233 614.469543,239.416061 
	C597.518372,233.378296 580.229065,228.612442 562.513306,225.474411 
	C540.810364,221.630142 518.908081,219.891739 496.920258,221.428345 
	C480.530060,222.573776 464.179840,224.541794 448.173035,228.615906 
	C439.352905,230.860840 430.720886,225.835098 428.365906,217.171600 
	C427.306427,213.274078 429.835327,211.554031 433.006775,210.848877 
	C444.505463,208.292160 455.931213,205.350601 468.098022,203.841675 
z"/>
<path fill="#000000" opacity="1.000000" stroke="none" 
	d="
M666.665527,114.712402 
	C673.062317,104.904831 675.770630,98.776192 666.549683,87.431557 
	C664.815369,85.297798 665.018921,83.715584 667.234741,82.009781 
	C674.450012,76.455360 686.244568,78.146423 690.033447,86.197098 
	C695.385437,97.569138 704.854248,102.679482 716.152222,105.579224 
	C724.043884,107.604706 731.985413,109.310921 740.155579,110.051262 
	C750.958130,111.030144 760.781128,115.092857 769.720337,121.143463 
	C776.541016,125.760124 779.460571,133.100693 782.018372,140.457108 
	C783.089294,143.537186 780.390198,146.107086 779.271973,148.798401 
	C774.939819,159.224777 763.948059,163.055023 754.271179,157.772919 
	C749.928467,155.402466 749.586670,151.619232 753.453430,148.722122 
	C760.694336,143.296997 761.265259,137.168076 755.442505,130.198135 
	C750.794861,124.634850 744.368286,122.273544 737.815002,120.568810 
	C726.384583,117.595345 714.795105,115.231079 702.986755,114.195030 
	C702.491089,114.151535 701.908691,114.168930 701.524719,113.917084 
	C693.937134,108.941086 690.329529,113.711632 686.847656,119.615211 
	C683.993469,124.454659 680.090637,128.734619 677.652100,133.748703 
	C671.517761,146.362137 676.441895,154.399765 689.240173,157.540771 
	C690.375610,157.819443 691.630554,157.894791 692.385315,156.700516 
	C693.084717,155.593597 692.755981,154.490982 692.179443,153.396393 
	C687.895325,145.262299 688.076904,145.287628 697.457703,144.509109 
	C701.667969,144.159668 705.364807,145.043121 709.085754,146.502640 
	C714.630493,148.677490 717.019775,151.880066 716.121460,157.643463 
	C715.388245,162.347534 717.359924,163.371201 721.334106,163.934814 
	C726.692444,164.694763 732.269104,163.973114 737.368225,166.823242 
	C741.427063,169.091965 746.371338,177.199493 745.702209,181.723465 
	C744.897461,187.164688 740.159851,191.587112 734.205139,192.409927 
	C728.938660,193.137665 723.674438,193.982224 718.327881,193.443344 
	C716.821716,193.291534 715.218323,193.068924 714.711609,191.323074 
	C714.266724,189.789948 715.459839,188.875488 716.399048,187.945877 
	C717.463867,186.891968 718.541931,185.846588 719.674133,184.866608 
	C722.003784,182.850082 724.456482,180.500000 723.094116,177.306351 
	C721.623047,173.857925 718.673889,171.487228 714.611267,171.212540 
	C708.130981,170.774338 703.605347,174.708954 699.562927,178.792572 
	C696.777466,181.606384 697.976440,184.955139 700.969360,187.480911 
	C702.309937,188.612289 704.439880,189.511047 703.619019,191.751450 
	C702.914551,193.674072 700.819031,193.877884 699.048645,194.352325 
	C692.103271,196.213623 681.823303,191.851974 678.451355,185.590210 
	C675.985168,181.010529 676.799866,176.865402 680.784363,172.451935 
	C682.085571,171.010681 684.028992,170.036118 684.569641,167.613785 
	C682.448120,165.015213 679.157410,164.882523 676.216187,164.291397 
	C668.197937,162.679871 660.906921,160.085464 655.996155,152.876480 
	C653.090820,148.611450 652.668762,144.487518 653.631531,139.350861 
	C655.429565,129.757187 660.885498,122.429871 666.665527,114.712402 
z"/>
<path fill="#000000" opacity="1.000000" stroke="none" 
	d="
M123.213905,456.579163 
	C133.499344,453.852844 139.539108,447.096222 143.084900,437.745453 
	C143.908203,435.574341 144.746521,433.404144 145.695709,431.286285 
	C151.840317,417.576477 143.773438,401.196564 129.020355,397.479401 
	C125.726074,396.649384 119.690300,399.543579 118.063034,402.817047 
	C116.878525,405.199860 115.910309,407.693268 114.666710,410.042694 
	C113.790405,411.698212 112.467079,413.233551 110.354805,412.774139 
	C108.233803,412.312836 107.823624,410.356598 107.547462,408.488403 
	C106.741783,403.038025 106.233101,397.596069 107.390839,392.113678 
	C108.098335,388.763367 107.575806,385.856659 104.175522,384.013306 
	C98.631355,381.007660 96.290901,382.321533 96.263550,388.535431 
	C96.244545,392.853394 96.957741,397.170654 96.260971,401.489471 
	C95.877464,403.866577 95.311996,406.510254 92.634697,406.862305 
	C89.742599,407.242615 88.634766,404.521942 88.226738,402.303314 
	C86.143806,390.977753 85.784775,379.522552 86.933449,368.092102 
	C87.410110,363.348846 90.567337,360.479248 95.529160,359.757690 
	C101.848671,358.838684 102.648361,357.496033 102.140999,350.853485 
	C101.561394,343.265045 105.522346,337.945557 111.272934,333.649323 
	C116.936203,329.418396 123.088203,327.933441 129.444565,331.638123 
	C134.348419,334.496216 138.828888,338.428436 140.891296,343.720428 
	C143.355255,350.042816 148.264938,353.780884 153.031174,357.813843 
	C154.969193,359.453735 157.515762,359.932861 160.090164,359.897095 
	C162.671448,359.861237 165.364792,359.492676 166.712250,357.176208 
	C168.060822,354.857788 166.412598,352.756744 164.967026,350.877350 
	C161.158386,345.925659 159.587677,339.894592 157.054916,334.331268 
	C156.123840,332.286102 156.965164,330.375000 158.547165,328.918060 
	C160.482162,327.136078 162.246552,328.440491 163.990341,329.417084 
	C176.039032,336.164825 176.217224,347.735291 175.882278,359.335999 
	C175.783081,362.771942 174.646454,366.203308 173.788681,369.586975 
	C171.610611,378.178955 160.081955,385.719269 150.660294,379.568695 
	C143.743607,375.053406 138.690948,369.178619 135.260498,361.980652 
	C131.012146,353.066620 118.864441,349.886536 113.240730,356.650970 
	C112.046806,358.087067 110.609200,359.814209 111.614784,361.580658 
	C114.466988,366.590912 115.418999,372.486023 118.679832,377.225311 
	C130.173859,373.614441 141.038040,378.402527 148.212952,389.159454 
	C160.028870,406.874329 159.924393,425.736969 154.061325,445.105255 
	C151.517517,453.508606 147.618973,461.353760 141.922226,468.298004 
	C138.666214,472.267029 134.849289,474.110352 129.968246,474.347504 
	C128.804413,474.404053 127.568100,474.138702 126.481842,474.440918 
	C115.784279,477.417297 108.067131,467.138428 106.893730,456.921570 
	C106.473694,453.264435 106.083984,449.638550 106.759804,445.994690 
	C107.240540,443.402679 108.291771,440.776062 111.270111,440.861938 
	C114.460052,440.953949 114.538551,443.954926 114.237709,446.193787 
	C113.332848,452.927612 118.396690,454.426971 123.213905,456.579163 
z"/>
<path fill="#000000" opacity="1.000000" stroke="none" 
	d="
M800.446838,279.180664 
	C800.106445,274.434631 799.756042,270.117798 799.644714,265.794800 
	C799.517029,260.839478 796.888306,258.841858 792.175476,258.279602 
	C784.687805,257.386292 777.716553,254.957230 771.195862,250.947556 
	C759.519226,243.767471 759.794250,228.064926 765.984497,219.146057 
	C769.635681,213.885391 774.463623,209.818207 781.250916,207.859451 
	C794.192017,204.124756 807.063477,203.974197 820.256531,205.629105 
	C832.946899,207.220963 845.852539,206.859665 858.418762,209.765320 
	C861.716919,210.527939 864.690125,211.761490 867.510254,213.659302 
	C870.848511,215.905869 872.363892,218.685715 872.365356,222.815765 
	C872.371460,240.314270 872.506042,257.915039 868.847107,275.033905 
	C865.503784,290.675995 857.906189,298.983643 841.501953,299.561981 
	C832.117798,299.892822 823.388794,298.290314 814.514526,295.990875 
	C805.880432,293.753662 801.039795,288.617401 800.446838,279.180664 
M818.464600,253.586746 
	C822.438110,255.304276 823.453430,257.918823 822.588013,262.372833 
	C821.258789,269.214172 821.206970,276.186920 823.983704,282.944397 
	C826.089478,288.068970 827.991882,289.166077 833.103088,286.813477 
	C842.012451,282.712555 845.450134,274.289581 846.331177,265.806671 
	C847.698608,252.640091 849.599121,239.435455 848.426270,225.995331 
	C847.965088,220.711334 845.759033,219.238831 841.628906,218.020142 
	C834.824951,216.012482 827.790100,216.084290 820.849365,215.585831 
	C811.137390,214.888351 801.551819,215.606888 792.884888,220.898819 
	C787.601196,224.124985 783.163330,233.388626 784.388000,238.936691 
	C785.725830,244.997299 791.515625,250.154678 798.477783,250.512085 
	C805.005737,250.847168 811.235474,252.796799 818.464600,253.586746 
z"/>
<path fill="#000000" opacity="1.000000" stroke="none" 
	d="
M274.395447,145.386322 
	C283.515350,137.514496 288.078247,126.695961 294.884766,117.545898 
	C302.402100,107.440262 310.828217,99.220665 323.904327,97.687340 
	C338.430450,95.983978 342.381927,107.073433 339.761688,117.792061 
	C338.708405,122.100807 335.773102,125.854927 332.531342,129.030182 
	C328.761292,132.722885 325.668427,131.791992 324.276581,126.749008 
	C322.592804,120.648163 316.574249,118.134605 310.582672,120.746841 
	C300.223083,125.263474 294.176331,133.730957 288.999725,143.237183 
	C285.419037,149.812668 281.088745,155.967072 275.779694,161.291351 
	C272.907043,164.172226 271.853729,166.925995 274.406525,170.478302 
	C275.693787,172.269577 276.278076,174.346558 276.499298,176.548508 
	C277.290894,184.427811 280.843628,191.105301 285.777283,197.090240 
	C289.128265,201.155289 293.916168,199.896667 297.277496,198.187210 
	C302.194702,195.686493 307.656952,193.712692 311.448151,189.192429 
	C313.089020,187.236023 314.298676,185.503281 312.904999,182.985794 
	C311.600098,180.628647 309.525360,180.086899 306.981781,180.208542 
	C304.516724,180.326477 301.645111,182.897247 299.643005,179.834305 
	C297.584808,176.685577 299.450928,173.804596 301.216248,171.080902 
	C301.753174,170.252457 302.085541,169.285477 302.468170,168.363922 
	C306.346771,159.022430 312.207245,157.241440 320.527161,162.884232 
	C325.567383,166.302673 325.868073,166.430054 328.203613,160.916718 
	C331.522919,153.081268 336.174286,146.716232 344.475128,143.773590 
	C349.240265,142.084366 353.974396,141.857285 358.151184,145.368393 
	C362.245850,148.810486 360.899597,153.319626 360.008179,157.460175 
	C359.281097,160.837097 357.761932,164.048676 356.530396,167.309555 
	C355.925476,168.911346 355.048218,170.461899 353.078064,170.442276 
	C351.135681,170.422913 350.395142,168.830521 349.575836,167.320511 
	C348.428741,165.206390 349.511810,161.693069 345.508698,161.317596 
	C341.310760,160.923859 338.150970,162.267487 335.446259,165.510956 
	C330.254761,171.736420 329.592133,177.860535 333.826935,183.149429 
	C335.584045,185.343887 337.422516,186.521210 340.181458,184.528046 
	C341.351135,183.683014 342.882568,182.943039 344.277924,182.889130 
	C347.109619,182.779709 349.288513,184.572388 347.749329,187.222702 
	C344.862793,192.192978 341.973663,197.359528 337.645294,201.247025 
	C332.860107,205.544846 327.081085,204.634628 322.325684,199.322403 
	C321.123596,197.979568 320.081940,196.493103 318.681366,194.709503 
	C314.089783,200.248795 310.977386,206.567200 305.267853,210.776718 
	C298.415527,215.828796 291.054535,218.319534 282.467743,217.524002 
	C278.299835,217.137863 275.234772,215.340881 272.641083,212.326981 
	C268.268494,207.245972 265.936859,201.222672 264.948029,194.708725 
	C263.258606,183.579651 256.484497,176.305801 244.114487,180.334091 
	C240.397293,181.544601 238.656265,179.346863 239.224976,175.757172 
	C239.872498,171.669922 240.901825,167.638260 241.883118,163.611191 
	C242.271317,162.018051 243.653564,161.241287 245.114502,160.749130 
	C249.212418,159.368744 253.277008,157.855972 257.442993,156.718719 
	C264.270111,154.855087 269.760803,151.103546 274.395447,145.386322 
z"/>
<path fill="#000000" opacity="1.000000" stroke="none" 
	d="
M932.157227,339.674805 
	C933.750854,342.066376 936.441711,342.103577 938.136536,343.810242 
	C943.061401,348.769836 941.904053,353.804810 939.103882,359.288788 
	C933.644653,369.980469 935.243408,380.813019 940.190247,390.987518 
	C943.869812,398.555359 949.181274,405.311188 953.361084,412.658905 
	C958.995544,422.563660 961.921814,432.784210 956.309387,443.962982 
	C950.746216,455.043549 937.601379,456.528839 930.321716,446.615784 
	C928.355957,443.938904 926.430176,441.231354 924.545044,438.497223 
	C923.455627,436.917114 923.780212,435.327850 924.843018,433.855621 
	C925.975464,432.286835 927.626648,431.765228 929.246460,432.635468 
	C933.163513,434.739777 936.210815,433.832794 938.872314,430.498016 
	C941.821106,426.803253 943.068481,422.908966 941.993835,418.041992 
	C939.341492,406.029694 931.613892,396.588745 926.216187,385.977478 
	C924.399658,382.406342 922.621704,378.871094 921.555176,375.001587 
	C920.563049,371.402130 918.358765,369.396271 914.461121,369.128937 
	C906.389648,368.575317 898.411194,365.891449 890.224365,368.311188 
	C882.233215,370.673157 879.539429,375.204834 881.373535,383.234955 
	C881.815857,385.171509 881.991455,387.168732 882.295532,389.137146 
	C882.596375,391.085083 883.227844,392.882629 885.642029,392.618866 
	C887.850220,392.377594 889.531494,391.075470 889.311340,388.691101 
	C889.047546,385.833740 888.096619,382.207550 891.350159,381.283661 
	C894.874939,380.282715 897.201599,383.545837 899.184570,386.277557 
	C899.768677,387.082214 900.415405,387.843872 901.064026,388.598969 
	C908.737854,397.532593 907.913696,404.815094 897.531982,409.825134 
	C892.407166,412.298279 893.023926,414.564819 895.247375,418.056824 
	C899.395569,424.571533 900.157410,431.744995 899.347656,439.161530 
	C898.703247,445.063446 893.541565,448.528259 887.883911,446.989563 
	C881.141357,445.155792 877.039246,440.006805 873.507690,434.546173 
	C871.490540,431.427216 873.727966,428.630157 877.507812,428.892456 
	C883.732666,429.324463 885.462585,427.211945 883.950623,421.023438 
	C883.595764,419.571167 883.321716,418.092896 882.867615,416.672272 
	C881.012268,410.867706 875.055725,407.929169 869.229614,409.858307 
	C867.412048,410.460144 866.856934,412.029968 866.127747,413.532471 
	C864.776367,416.317200 862.735779,416.563477 860.470215,414.724823 
	C855.907410,411.022034 852.957458,406.210083 852.027832,400.444031 
	C851.332336,396.130157 855.572998,392.092285 860.351379,391.704620 
	C863.243591,391.469971 866.190186,392.738251 869.851318,391.539429 
	C867.287537,385.710266 865.825684,379.968475 863.999512,374.374115 
	C860.505127,363.669312 868.748535,351.214844 881.862793,350.643677 
	C889.880676,350.294464 897.802795,351.074493 905.730347,352.015015 
	C906.557068,352.113098 907.377441,352.291748 908.206238,352.340607 
	C917.491028,352.888214 918.717590,352.072723 923.159973,342.462891 
	C925.538147,337.318604 926.838318,336.862732 932.157227,339.674805 
z"/>
<path fill="#000000" opacity="1.000000" stroke="none" 
	d="
M501.255798,122.615562 
	C493.336304,125.337242 485.697388,124.151199 478.132141,123.176277 
	C471.926849,122.376617 464.073975,114.767357 464.530151,108.513451 
	C464.802277,104.782364 463.951019,101.085739 464.560516,97.172684 
	C466.023895,87.777481 471.959381,81.859123 479.043396,76.756439 
	C485.226562,72.302650 491.735443,68.302170 498.078156,64.068047 
	C500.093353,62.722775 502.111664,62.109703 503.789093,64.348488 
	C505.474670,66.598167 504.247375,68.446312 502.453003,69.949715 
	C498.647491,73.138092 495.436249,76.934059 491.263916,79.792755 
	C485.234253,83.923996 483.095367,96.903412 486.867859,103.101044 
	C488.345825,105.529167 490.725616,106.074532 493.188324,106.583702 
	C508.245331,109.696701 521.749878,105.408302 534.610291,97.945145 
	C546.674133,90.944328 558.408691,83.235725 570.974487,77.288734 
	C579.634155,73.190353 588.698975,69.077644 599.009644,69.644608 
	C613.750244,70.455185 620.461182,81.405945 622.428223,92.808792 
	C623.572449,99.441925 619.474304,105.438240 614.186462,108.961365 
	C607.520630,113.402534 601.056274,118.488358 592.819153,120.389557 
	C589.147583,121.237000 585.615295,121.328735 581.980042,121.289185 
	C580.758545,121.275887 579.626160,120.851807 579.330383,119.479691 
	C579.035461,118.111786 579.979553,117.340034 580.962830,116.661095 
	C584.429565,114.267380 588.288086,112.717995 592.311707,111.595955 
	C595.844055,110.610931 598.372314,108.911896 598.047485,104.750740 
	C598.035034,104.590744 598.117188,104.425621 598.134705,104.260712 
	C598.651917,99.386925 600.759277,93.753342 595.935303,90.323265 
	C589.097229,85.461121 581.578003,81.266159 572.814758,86.200668 
	C560.667603,93.040573 548.444092,99.760811 536.508911,106.956337 
	C525.498413,113.594353 513.848694,118.610558 501.255798,122.615562 
z"/>
<path fill="#000000" opacity="1.000000" stroke="none" 
	d="
M223.019165,188.147186 
	C228.083191,196.600967 227.044754,204.627243 222.563629,212.495697 
	C221.693222,214.024048 220.684128,216.104752 218.490631,215.535126 
	C216.248230,214.952789 215.703308,212.783218 215.771133,210.689896 
	C215.904617,206.569855 213.702713,204.750778 209.929550,203.928711 
	C206.143585,203.103836 203.116806,203.729858 200.729614,207.009659 
	C198.313828,210.328720 196.729324,213.959152 196.374847,218.016861 
	C195.368439,229.536850 194.638748,241.082962 193.488449,252.587631 
	C192.911957,258.353333 191.376892,264.021851 190.772705,269.786438 
	C189.782318,279.236084 192.055328,288.058899 199.282745,292.240753 
	C201.984924,293.804230 203.692444,293.743042 205.746582,291.490234 
	C208.219101,288.778595 209.708939,285.777100 209.676804,282.073730 
	C209.665237,280.741272 209.662430,279.407532 209.707001,278.076080 
	C209.797379,275.376434 209.820724,272.000977 213.109131,271.760376 
	C216.443695,271.516357 216.759766,274.833893 217.260849,277.515106 
	C218.924286,286.416138 219.549637,295.332794 217.129211,304.159149 
	C214.905151,312.269501 205.890152,316.932953 198.161926,313.925476 
	C188.306122,310.090027 180.147018,304.441620 178.796432,293.014954 
	C176.130447,292.354767 174.964676,293.921478 173.607391,295.083923 
	C167.119995,300.639954 159.809418,298.549530 155.747025,292.611481 
	C149.913010,284.083862 147.843475,273.952026 150.392197,263.511536 
	C150.971603,261.138092 151.559464,257.528503 155.207306,258.289246 
	C158.935547,259.066772 158.618164,262.619232 157.902588,265.281860 
	C156.801361,269.379456 157.781296,272.701111 159.982651,276.100281 
	C162.721497,280.329346 165.965530,280.830658 169.800888,277.443573 
	C178.987930,269.330292 183.269516,259.089020 184.887497,246.992523 
	C186.584229,234.307144 185.610886,221.397568 188.749084,208.851685 
	C190.633377,201.318665 193.042709,194.151123 198.292068,188.271469 
	C204.366287,181.467941 216.174118,181.317413 223.019165,188.147186 
z"/>
<path fill="#000000" opacity="1.000000" stroke="none" 
	d="
M126.280968,569.228027 
	C146.344345,569.292358 157.591629,582.104492 159.221909,601.120850 
	C159.886398,608.871887 158.588394,615.996582 152.691086,621.748779 
	C150.983704,623.414185 149.230789,624.829163 147.026917,625.692322 
	C145.909714,626.130005 144.811600,626.348877 143.690201,625.647705 
	C140.140854,623.428467 138.152740,613.648621 140.916138,610.369995 
	C145.621826,604.787048 145.895523,598.912292 142.481461,592.811523 
	C139.249817,587.036682 132.782074,584.757751 125.218643,585.883667 
	C117.351669,587.054749 110.468674,589.559570 106.077354,596.847534 
	C104.492630,599.477600 103.978676,602.156555 104.501320,604.953064 
	C105.342163,609.452087 107.965309,613.185120 110.626945,616.771240 
	C111.842941,618.409546 113.809700,619.266357 115.969124,618.161499 
	C118.200386,617.020020 117.489540,615.199829 117.059845,613.380493 
	C116.717453,611.930786 116.596977,610.426514 116.411217,608.942322 
	C115.765778,603.784851 117.224098,602.076050 122.957138,601.242493 
	C127.569115,600.571899 129.286850,602.174622 130.201294,607.163269 
	C131.187454,612.543213 132.532898,617.859070 133.785599,623.187866 
	C135.024185,628.456604 134.037979,630.329956 128.977280,631.563599 
	C123.808960,632.823486 118.599068,633.911865 113.417816,635.120056 
	C108.413734,636.286987 105.037132,634.081360 101.705231,630.477966 
	C90.592361,618.459778 86.861923,599.917969 94.230438,586.190918 
	C98.933914,577.428711 107.292160,573.275513 116.528938,570.827759 
	C119.560455,570.024353 122.741669,569.785889 126.280968,569.228027 
z"/>
<path fill="#000000" opacity="1.000000" stroke="none" 
	d="
M761.145020,815.688965 
	C757.889893,813.393188 756.492432,810.412170 758.108643,807.244812 
	C760.004395,803.529419 762.717712,800.169312 767.977600,801.349243 
	C770.432922,791.901123 775.777832,785.880432 785.734253,784.850952 
	C788.282043,784.587463 788.329956,782.328918 788.756897,780.323730 
	C790.498962,772.140930 797.801575,766.472107 806.035034,766.784485 
	C809.286743,766.907837 812.335205,767.745667 814.665649,770.135864 
	C822.080994,777.741821 829.450378,785.392883 836.795959,793.066284 
	C838.527222,794.874817 838.524292,796.767334 837.018860,798.899841 
	C831.498840,806.719055 828.526855,806.864929 821.964233,799.802185 
	C817.336914,794.822388 812.486938,790.048157 807.696411,785.221802 
	C805.483582,782.992554 802.941711,781.070007 799.811279,783.288757 
	C796.370605,785.727173 797.021057,788.865479 798.897156,792.103516 
	C802.027405,797.505981 807.098267,801.187988 810.954895,805.944275 
	C812.415344,807.745361 814.051575,809.472168 815.868347,810.901489 
	C819.403503,813.682983 818.718445,816.092712 816.072021,819.159485 
	C810.513306,825.601013 808.631165,825.685181 802.712646,819.428406 
	C797.688721,814.117371 792.476746,808.983582 787.322876,803.796387 
	C785.202698,801.662415 782.647461,799.942139 779.870605,802.136047 
	C776.910278,804.474915 776.411743,807.613159 778.663086,810.993408 
	C782.375549,816.567200 787.762207,820.639221 791.845032,825.877197 
	C792.656799,826.918579 793.751526,827.734253 794.656067,828.709351 
	C799.700500,834.147522 799.529541,835.905579 793.492432,841.148987 
	C790.085510,844.107971 787.242920,843.249329 783.051392,838.703247 
	C775.956543,831.008118 768.641602,823.515869 761.145020,815.688965 
z"/>
<path fill="#000000" opacity="1.000000" stroke="none" 
	d="
M257.700134,780.767517 
	C262.046753,777.723694 265.619720,778.908142 270.208374,784.660950 
	C272.802612,787.913330 271.172241,790.443237 268.815552,792.963074 
	C265.749268,796.241455 262.896515,799.719543 259.828888,802.996582 
	C257.836395,805.125061 257.682007,807.049377 259.952057,808.953979 
	C264.239655,812.551392 268.563934,816.105164 272.994415,819.777710 
	C277.392578,815.783508 280.966522,811.696960 284.281769,807.376343 
	C288.472076,801.915283 289.853729,801.745300 294.960693,806.169617 
	C301.425995,811.770630 301.652313,812.478455 296.112183,818.846863 
	C284.788116,831.863953 273.308655,844.747253 261.780182,857.584167 
	C258.238281,861.528076 255.940353,861.089844 250.796127,856.126953 
	C247.375610,852.826965 247.283432,849.413696 250.442062,846.078613 
	C253.970795,842.352966 257.408752,838.540955 260.955444,834.832764 
	C263.209869,832.475708 263.505035,830.323242 260.847015,828.047302 
	C257.186493,824.913086 253.617279,821.672546 249.977386,818.513916 
	C248.119049,816.901184 246.845917,817.710632 245.443665,819.419556 
	C241.663437,824.026184 237.634689,828.428345 233.829346,833.015198 
	C230.771408,836.701172 227.959625,836.427612 224.600204,833.288391 
	C218.652039,827.730225 218.157318,826.673645 221.749893,822.471863 
	C233.601105,808.611023 245.540207,794.825256 257.700134,780.767517 
z"/>
<path fill="#000000" opacity="1.000000" stroke="none" 
	d="
M842.959534,742.094666 
	C840.549805,743.263062 838.838013,744.854187 836.520264,745.541931 
	C820.856201,750.189636 809.059387,740.292725 811.949585,724.125793 
	C813.808716,713.726807 819.699646,705.553650 829.683350,700.998352 
	C834.499023,698.800964 839.438965,699.279724 844.324158,700.843079 
	C845.983398,701.374023 847.223022,702.387939 847.511047,704.306335 
	C848.164062,708.656067 842.182556,715.510986 837.709045,715.480408 
	C831.177185,715.435730 826.268188,720.189148 826.248657,726.577576 
	C826.236877,730.431091 828.348206,731.697632 831.687866,729.720947 
	C835.564514,727.426453 838.704529,724.214905 842.007202,721.200989 
	C846.821655,716.807556 851.760681,713.023743 858.814026,712.378357 
	C871.788391,711.191284 882.695129,723.206726 880.075195,735.924561 
	C878.076538,745.626648 873.803284,753.628052 865.560852,759.319458 
	C858.647095,764.093445 851.128540,763.850281 843.583130,761.569458 
	C840.498352,760.636963 838.994446,758.308716 841.256531,754.965576 
	C841.987305,753.885559 842.315369,752.533447 842.830627,751.307068 
	C844.316406,747.770874 846.624390,746.264099 850.700806,747.140564 
	C857.902405,748.688843 866.052612,740.849792 865.149414,733.557556 
	C864.516235,728.445190 860.648682,726.703918 856.733276,730.089355 
	C852.221008,733.990906 847.215088,737.342163 842.959534,742.094666 
z"/>
<path fill="#000000" opacity="1.000000" stroke="none" 
	d="
M607.126831,883.271851 
	C605.130310,890.645569 596.133972,893.365479 591.250244,888.239929 
	C587.273376,884.066101 582.665405,883.198547 577.611328,884.944458 
	C572.135864,886.836121 569.364136,891.369324 569.382019,896.899841 
	C569.409302,905.323425 569.426514,913.970154 576.205872,920.526672 
	C581.822083,925.958191 591.248779,924.259338 594.593384,917.231689 
	C594.949280,916.483826 595.255371,915.711060 595.633972,914.975220 
	C598.962036,908.505920 602.246948,907.044861 609.335205,909.012756 
	C612.682007,909.941833 613.678467,912.139282 612.824585,915.522949 
	C608.555725,932.438660 597.541626,938.289551 579.805359,937.423523 
	C565.987488,936.748779 555.385437,923.282776 553.545715,909.047180 
	C552.310974,899.492676 552.358154,890.409729 558.143066,882.263306 
	C564.763245,872.940674 574.090759,869.323120 585.316650,869.668396 
	C595.139038,869.970642 602.580933,873.919250 607.126831,883.271851 
z"/>
<path fill="#000000" opacity="1.000000" stroke="none" 
	d="
M363.387970,916.806824 
	C361.813416,915.084290 360.519348,913.588989 359.130157,911.983765 
	C354.898590,915.547302 350.703064,913.696106 347.274872,911.360596 
	C343.546600,908.820618 345.217712,905.043823 346.488129,901.414001 
	C352.029205,885.582214 357.357758,869.675659 362.704071,853.776306 
	C364.301575,849.025330 366.117004,847.929504 370.828979,849.241333 
	C378.160553,851.282349 379.121521,852.442688 377.536530,858.085449 
	C376.381622,862.196960 374.923370,866.223206 373.440643,870.778198 
	C377.403412,871.270386 380.981689,870.787903 384.485565,871.577576 
	C392.317230,873.342773 397.884949,879.718628 398.373047,887.715698 
	C398.870636,895.867188 397.742767,903.418396 393.087799,910.518555 
	C386.236786,920.968262 374.140045,923.902832 363.387970,916.806824 
M379.210815,883.126343 
	C375.823059,881.515503 372.295105,881.826294 370.046753,884.555054 
	C366.127655,889.311768 364.058044,894.966003 365.731384,901.273315 
	C367.109283,906.466980 371.453491,908.280945 376.216888,905.912048 
	C383.145172,902.466431 385.320892,889.033752 379.210815,883.126343 
z"/>
<path fill="#000000" opacity="1.000000" stroke="none" 
	d="
M910.927734,567.708557 
	C918.367065,567.981323 925.016602,569.612793 930.506042,573.998840 
	C939.094238,580.860657 940.459290,591.268616 934.464417,600.707703 
	C933.944275,601.526672 933.495667,602.390991 932.857727,603.507446 
	C936.829102,605.164368 940.648865,605.756165 944.620728,605.996643 
	C949.681458,606.303040 951.659424,608.490295 951.233032,612.722900 
	C950.483459,620.163330 948.528931,622.331848 942.728271,621.349976 
	C930.649170,619.305481 918.613892,617.002258 906.557556,614.822632 
	C901.832825,613.968445 897.118713,612.613525 892.366455,612.449341 
	C883.417542,612.140076 881.896118,607.330688 887.200256,598.224060 
	C888.192139,596.521118 888.807251,595.202271 888.393921,593.217346 
	C885.276611,578.247375 893.143799,568.290833 908.467468,567.692444 
	C909.131836,567.666504 909.798218,567.694092 910.927734,567.708557 
M899.328064,590.574402 
	C901.203186,599.346130 912.553955,603.707886 920.916504,598.870361 
	C924.788147,596.630615 925.882996,592.940796 923.444641,589.125183 
	C919.886047,583.556824 913.941528,583.694458 908.326538,583.380798 
	C903.710693,583.122864 900.997192,585.803101 899.328064,590.574402 
z"/>
<path fill="#000000" opacity="1.000000" stroke="none" 
	d="
M871.212769,690.723694 
	C877.676331,696.160706 885.239197,698.941223 892.282593,702.628357 
	C896.751404,704.967834 897.946045,707.321777 895.986694,711.219482 
	C892.585022,717.986572 890.751221,718.824463 885.706116,716.248718 
	C870.182373,708.323181 854.637146,700.439453 839.073669,692.592224 
	C835.775757,690.929321 832.413269,689.174805 834.461121,684.756531 
	C838.007935,677.104370 839.527832,676.390869 845.311096,678.753357 
	C849.255737,680.364685 852.709290,683.091064 857.375183,684.298889 
	C857.821533,679.982361 857.891296,675.926025 859.743042,672.112549 
	C863.685425,663.993652 870.919128,660.471802 879.458862,663.605347 
	C889.291748,667.213440 898.482788,672.293518 907.741699,677.147461 
	C911.760010,679.254028 911.525940,681.870667 907.972229,688.155701 
	C905.592285,692.364807 902.327515,691.665710 898.987915,690.030212 
	C892.588745,686.896423 886.280762,683.575378 879.953491,680.296265 
	C876.831116,678.678101 873.606140,676.544189 870.434692,679.787476 
	C866.939636,683.361877 868.055542,687.034729 871.212769,690.723694 
z"/>
<path fill="#000000" opacity="1.000000" stroke="none" 
	d="
M299.584625,845.062988 
	C293.930359,846.023193 289.723633,844.561035 286.460602,840.174011 
	C284.792114,837.930786 285.044006,836.545471 287.117828,834.742981 
	C291.097717,831.283691 295.423492,830.019470 300.514893,831.559814 
	C309.949371,834.414001 318.591248,838.012634 321.980072,848.711060 
	C323.454468,853.365723 321.404724,856.798645 319.461273,860.239014 
	C316.442749,865.582581 312.790649,870.564880 309.516571,875.769165 
	C308.282043,877.731567 307.198639,879.822021 306.311432,881.963928 
	C303.306000,889.219788 298.186127,890.510864 294.059662,883.904663 
	C290.999298,879.005310 287.051636,878.316772 282.527496,877.230591 
	C276.009186,875.665649 270.323151,869.684143 269.834564,863.346313 
	C269.374023,857.372192 271.343658,852.227661 276.694000,848.787964 
	C280.030365,846.642944 283.628937,846.709839 287.301941,847.272278 
	C292.274506,848.033691 296.906067,849.921753 301.568939,851.704651 
	C303.208832,852.331665 305.213928,853.692444 306.286316,851.219116 
	C307.137756,849.255432 305.566284,847.818359 304.152649,846.588196 
	C302.967407,845.556946 301.535095,845.179688 299.584625,845.062988 
M297.493652,866.319153 
	C299.663788,864.337708 299.712311,862.669373 296.715057,861.571960 
	C294.846832,860.887878 292.944794,860.289856 291.038757,859.717041 
	C288.919922,859.080261 286.937164,859.302490 285.970428,861.543335 
	C284.883026,864.063843 285.975281,866.178650 288.103668,867.516479 
	C291.146851,869.429260 294.144653,868.739319 297.493652,866.319153 
z"/>
<path fill="#000000" opacity="1.000000" stroke="none" 
	d="
M180.419830,733.738647 
	C179.373230,731.999207 178.691147,730.476135 177.798294,729.088623 
	C174.735626,724.329041 176.141708,721.382507 181.836197,720.766846 
	C189.322678,719.957336 197.595612,724.916748 201.188629,732.378662 
	C201.331024,732.674438 201.344879,733.031860 201.486664,733.328064 
	C208.620651,748.229370 207.837662,751.299927 194.413193,761.257996 
	C188.329666,765.770630 181.240402,769.001038 176.793793,775.608154 
	C175.544144,777.465027 173.310959,777.393127 171.423508,776.054016 
	C169.627304,774.779541 167.622757,773.103394 167.448349,771.098572 
	C166.868423,764.431946 161.442963,762.052979 157.417389,758.166931 
	C150.329559,751.324890 148.541733,739.722046 158.872681,732.990417 
	C164.117584,729.572815 170.229950,729.893311 175.483002,734.151001 
	C179.209717,737.171692 182.833923,740.319763 186.474396,743.445312 
	C187.710861,744.506897 189.025696,745.239380 190.470291,744.079468 
	C191.667404,743.118225 191.505600,741.779663 190.967133,740.426331 
	C189.851105,737.621460 188.140732,735.523804 184.942123,735.151611 
	C183.459808,734.979126 181.931030,735.056213 180.419830,733.738647 
M174.662338,747.807617 
	C172.544388,745.601501 169.940353,743.909668 167.407974,746.508911 
	C164.412415,749.583740 167.703781,751.906189 169.360062,754.132996 
	C171.006195,756.346069 173.510239,755.883850 175.737915,755.250000 
	C177.295761,754.806641 179.100540,753.999512 179.208420,752.122925 
	C179.355316,749.567444 176.613144,749.505554 174.662338,747.807617 
z"/>
<path fill="#000000" opacity="1.000000" stroke="none" 
	d="
M399.470123,919.988770 
	C397.331787,912.060181 397.560913,904.767090 400.536957,897.303284 
	C405.936401,883.761658 420.914062,880.370178 433.205780,885.299500 
	C443.618774,889.475159 449.263428,899.794067 447.921600,911.514343 
	C446.536591,923.611877 440.070435,930.901794 430.078156,933.597656 
	C418.088165,936.832458 406.448700,931.788269 400.706696,922.041016 
	C400.369354,921.468262 400.014252,920.906067 399.470123,919.988770 
M414.141968,916.011353 
	C418.302673,921.209412 422.729492,922.347290 426.886566,919.287109 
	C430.783447,916.418579 433.496857,908.642822 432.084015,903.997009 
	C431.082581,900.704102 429.508026,897.779907 425.652161,897.143921 
	C421.723724,896.496033 418.691406,897.498108 416.248871,901.083374 
	C413.182190,905.584656 412.568817,910.211914 414.141968,916.011353 
z"/>
<path fill="#000000" opacity="1.000000" stroke="none" 
	d="
M726.191589,831.580933 
	C731.883179,822.426514 739.557007,818.124023 750.203552,817.458557 
	C760.822266,816.794800 774.191040,829.057129 775.149475,842.219788 
	C775.994385,853.823608 767.119080,864.976013 755.436584,868.198669 
	C737.839661,873.052856 723.018616,855.425293 724.354736,840.655701 
	C724.620972,837.713806 724.385071,834.627625 726.191589,831.580933 
M742.464539,848.961548 
	C747.327515,854.500183 751.900146,856.501099 755.534851,854.181030 
	C759.628967,851.567566 760.731445,847.393982 759.749329,842.851868 
	C758.637451,837.709229 755.706421,833.975342 750.548950,832.053345 
	C746.245605,830.449707 743.026733,832.228577 740.341675,835.107544 
	C737.935303,837.687561 739.014587,844.668945 742.464539,848.961548 
z"/>
<path fill="#000000" opacity="1.000000" stroke="none" 
	d="
M883.021729,661.128052 
	C868.538452,650.058960 872.361572,629.841431 882.720276,621.225403 
	C889.179016,615.853210 897.371643,615.374084 905.443359,617.359070 
	C915.110657,619.736450 921.951111,625.779358 923.928101,635.499023 
	C926.185181,646.595825 922.583496,656.506226 913.314514,663.255249 
	C906.576904,668.161133 898.620972,667.858582 890.919861,665.064453 
	C888.284668,664.108337 885.852966,662.591431 883.021729,661.128052 
M897.440491,631.348022 
	C891.050232,632.280762 887.426147,635.001587 886.741760,639.380310 
	C886.104431,643.458008 889.279419,647.653198 895.046875,649.893372 
	C897.021851,650.660461 899.220703,650.957092 901.348022,651.204224 
	C906.038513,651.749207 909.092834,649.222839 910.502563,645.136108 
	C911.885986,641.125305 910.639954,637.473022 906.802246,635.268372 
	C904.083740,633.706787 901.390076,631.975647 897.440491,631.348022 
z"/>
<path fill="#000000" opacity="1.000000" stroke="none" 
	d="
M667.086548,902.160645 
	C667.101318,896.443542 674.879089,891.382263 679.546875,893.635193 
	C683.811279,895.693420 688.957764,894.968079 691.461975,891.945251 
	C692.329956,890.897583 693.220276,889.788696 692.249878,888.387146 
	C691.467041,887.256348 690.190002,887.193298 689.092834,887.658875 
	C684.495239,889.609619 679.602478,889.056030 674.827454,889.550110 
	C666.835510,890.377014 662.808533,888.563110 659.507019,882.312378 
	C656.288513,876.218750 657.132812,870.601624 662.124756,864.895630 
	C668.512756,857.593750 683.533936,854.274963 692.337524,858.220154 
	C696.923584,860.275330 697.480957,863.182617 693.768982,866.535583 
	C690.815552,869.203247 687.556396,870.675537 683.278015,869.607788 
	C679.086731,868.561890 675.128174,869.278259 672.110535,873.692871 
	C676.221863,875.457397 679.821533,874.799805 683.471436,873.703125 
	C688.986938,872.045837 694.820007,871.296509 700.049805,873.643433 
	C708.190979,877.296936 710.807556,886.916931 705.944214,894.944580 
	C699.560364,905.482300 678.844910,913.757324 667.086548,902.160645 
z"/>
<path fill="#000000" opacity="1.000000" stroke="none" 
	d="
M644.827393,908.601074 
	C646.779541,904.258240 645.450806,900.349915 644.334229,896.575439 
	C642.641785,890.854614 640.611023,885.228394 638.567139,879.619141 
	C637.189819,875.838867 637.689331,873.337280 641.969543,871.917786 
	C650.629150,869.045776 651.353210,869.471069 654.336609,878.154114 
	C657.726196,888.019287 660.248169,898.183105 664.501831,907.754089 
	C665.621155,910.272583 666.360779,913.575745 664.274292,915.240356 
	C661.606201,917.368896 658.139771,919.840698 654.393616,918.410522 
	C651.359680,917.252197 650.288452,918.191223 648.363953,920.429199 
	C642.038879,927.784363 625.730164,929.523254 620.794189,917.618103 
	C617.051880,908.591858 614.101074,899.327759 610.823792,890.169067 
	C608.533020,883.767395 610.101257,882.032288 619.216187,879.556946 
	C624.333496,878.167297 624.800964,882.367004 625.798645,885.633240 
	C627.887756,892.471985 629.859985,899.344482 632.660767,905.944824 
	C635.640625,912.967102 638.492981,913.701111 644.827393,908.601074 
z"/>
<path fill="#000000" opacity="1.000000" stroke="none" 
	d="
M116.772415,640.486328 
	C125.486458,637.119141 133.882629,633.982910 142.209412,630.672119 
	C145.800278,629.244324 148.359879,629.474182 149.433624,633.741150 
	C149.671600,634.686890 150.247543,635.551697 150.695969,636.439575 
	C153.122543,641.244141 152.141388,643.541626 146.876801,645.445312 
	C139.386749,648.153870 131.903931,650.879700 124.715279,654.343079 
	C121.929810,655.685120 119.117035,657.190735 119.487961,660.802002 
	C119.904213,664.854553 123.182602,666.074463 126.610725,666.605957 
	C131.684372,667.392761 135.924927,664.528137 140.441788,663.021118 
	C144.690353,661.603516 148.780807,659.712708 152.943451,658.036621 
	C156.959167,656.419739 159.416351,658.413818 160.864120,661.832825 
	C163.313141,667.616394 162.629944,670.737122 158.478989,672.416931 
	C147.559204,676.835938 136.610123,681.191528 125.581985,685.330688 
	C118.682091,687.920471 113.371864,683.644531 114.571060,676.066284 
	C115.062363,672.961548 114.289993,671.822449 112.144730,670.079651 
	C101.950729,661.798279 103.971611,648.426331 116.772415,640.486328 
z"/>
<path fill="#000000" opacity="1.000000" stroke="none" 
	d="
M467.743591,942.009277 
	C453.288177,941.412170 447.777588,934.115601 449.940674,918.096191 
	C450.726990,912.272766 450.819702,906.495361 450.835297,900.686646 
	C450.858093,892.188477 452.199463,890.896240 460.853363,891.652710 
	C463.346375,891.870667 465.819336,892.128784 467.327271,893.936218 
	C465.908691,903.809753 464.979034,913.366516 465.477936,922.989624 
	C465.643463,926.182983 466.488220,929.666016 470.782928,929.517212 
	C474.735260,929.380371 477.625061,927.661987 478.620361,923.266907 
	C480.397705,915.418457 481.060364,907.506714 480.766815,899.500305 
	C480.571594,894.176453 484.021088,893.649841 488.035706,893.741455 
	C494.440186,893.887695 496.289825,895.170105 495.938507,900.022095 
	C495.085907,911.796936 495.297821,923.643494 493.493134,935.355225 
	C492.437897,942.203186 486.696991,944.831543 480.418823,941.183838 
	C479.437744,940.613892 478.617371,939.767334 477.566467,938.923279 
	C474.665985,940.707397 471.449951,941.455566 467.743591,942.009277 
z"/>
<path fill="#000000" opacity="1.000000" stroke="none" 
	d="
M64.557480,511.877197 
	C63.740631,505.044891 64.861404,503.909576 71.342361,503.912354 
	C101.813492,503.925415 132.284698,503.893982 162.755737,503.818665 
	C168.596741,503.804230 169.285156,504.366425 169.329315,510.386444 
	C169.394318,519.248474 169.394318,519.260132 160.532806,519.260071 
	C130.723953,519.259949 100.915092,519.261230 71.106255,519.236450 
	C64.965439,519.231323 64.282906,518.452698 64.557480,511.877197 
z"/>
<path fill="#000000" opacity="1.000000" stroke="none" 
	d="
M866.772827,515.690125 
	C866.549805,503.587463 866.548279,503.915253 878.144470,503.969360 
	C906.963623,504.103882 935.784241,503.908386 964.604309,503.850586 
	C967.045166,503.845703 970.246643,503.073303 970.915283,506.283020 
	C971.711853,510.106354 972.269348,514.237244 970.332458,517.953857 
	C969.605957,519.347778 967.707947,519.194153 966.203796,519.195068 
	C934.716248,519.214172 903.228699,519.225159 871.741150,519.234131 
	C869.462830,519.234741 867.332458,518.971680 866.772827,515.690125 
z"/>
<path fill="#000000" opacity="1.000000" stroke="none" 
	d="
M400.796021,100.593506 
	C411.607391,93.735565 427.272736,100.748383 430.575012,110.180748 
	C433.330109,118.050163 431.003510,129.317017 424.023651,134.603973 
	C417.774933,139.337158 408.651855,140.384460 400.519012,135.713074 
	C393.026459,131.409424 389.466766,121.728333 391.457336,113.238983 
	C392.750641,107.723114 395.454895,103.480286 400.796021,100.593506 
z"/>
<path fill="#000000" opacity="1.000000" stroke="none" 
	d="
M724.245911,886.808044 
	C718.864380,886.407471 716.425354,882.725403 714.117615,879.061096 
	C711.816406,875.407227 709.859741,871.538330 707.648560,867.825256 
	C705.314392,863.905579 703.360352,859.963196 697.702515,859.318237 
	C693.754089,858.868164 691.859802,854.106384 693.454346,850.240234 
	C694.431885,847.869995 694.398438,845.948303 693.443176,843.615356 
	C692.038757,840.185791 696.014343,830.108337 699.283264,828.645447 
	C702.152954,827.361206 703.886047,829.684143 704.687439,831.658386 
	C706.554810,836.258362 707.917603,840.461853 714.521545,837.721008 
	C716.847778,836.755493 718.660400,839.329651 719.507324,841.654297 
	C720.454590,844.254700 722.237915,847.297302 719.144653,849.333008 
	C715.658203,851.627625 716.623352,853.580322 718.396973,856.289124 
	C720.844421,860.026917 722.866943,864.040100 725.179138,867.870361 
	C726.326050,869.770142 727.746582,871.736694 730.338440,869.989502 
	C733.712830,867.714783 735.927673,868.989136 737.671265,872.067688 
	C739.612122,875.494629 740.631531,878.925781 736.876892,881.854553 
	C733.280518,884.659790 729.351746,886.753967 724.245911,886.808044 
z"/>
<path fill="#000000" opacity="1.000000" stroke="none" 
	d="
M154.032593,725.870605 
	C155.816574,731.056213 155.210037,734.992981 149.863785,737.298584 
	C148.263672,737.988647 146.751465,738.357971 145.077728,737.603455 
	C137.472275,734.174805 135.680603,720.063660 142.196213,714.976685 
	C148.251389,710.249207 155.322464,707.190002 161.726730,703.033325 
	C163.358292,701.974304 164.359360,701.049866 164.380188,698.773682 
	C164.425125,693.857422 170.122086,690.511597 174.769043,692.600891 
	C176.598679,693.423523 178.092514,693.954163 179.840759,692.718872 
	C183.284836,690.285278 186.419250,691.228271 189.396271,693.659607 
	C189.653915,693.869995 189.896622,694.103027 190.172455,694.286072 
	C197.366943,699.062012 197.342468,700.621704 189.340378,704.860901 
	C186.027466,706.616028 184.260880,708.282166 186.160187,712.187500 
	C187.088074,714.095459 186.800629,716.615845 184.357925,717.074829 
	C181.674683,717.578979 179.307800,722.273865 176.165527,718.110291 
	C173.776825,714.945251 171.427643,714.864624 168.107132,716.955872 
	C163.499451,719.857727 158.439774,722.037842 154.032593,725.870605 
z"/>
<path fill="#000000" opacity="1.000000" stroke="none" 
	d="
M517.063599,895.641052 
	C519.522461,894.028564 521.998535,893.110107 524.448486,893.532898 
	C527.761902,894.104736 532.604797,893.238037 532.897644,898.398865 
	C533.273560,905.024475 530.163330,907.820007 523.819763,907.400391 
	C519.098328,907.088135 517.579163,910.188477 517.428345,913.896484 
	C517.124939,921.359680 517.304077,928.842102 517.267212,936.316528 
	C517.237305,942.391541 515.425598,944.034302 508.973755,943.884888 
	C502.965393,943.745728 501.640778,942.174683 501.555115,936.065186 
	C501.403809,925.271362 500.992371,914.481384 500.781067,903.688049 
	C500.609253,894.911194 503.241486,892.908386 511.995911,894.979980 
	C513.562927,895.350708 514.964966,896.642944 517.063599,895.641052 
z"/>
<path fill="#000000" opacity="1.000000" stroke="none" 
	d="
M336.591003,873.666138 
	C332.830048,880.492981 329.302765,887.053284 325.705872,893.575134 
	C323.294769,897.946838 321.531738,898.147278 315.746155,895.639954 
	C311.637756,893.859436 309.205292,891.511841 311.549805,886.888428 
	C317.318665,875.512329 323.068848,864.124084 329.061615,852.865784 
	C331.057922,849.115295 335.037689,849.003113 339.255035,852.824219 
	C342.427032,855.698181 345.278992,857.771545 349.986725,857.831665 
	C353.441498,857.875671 357.266876,860.287048 357.908752,864.337463 
	C358.668610,869.132141 354.170380,870.918152 351.221771,873.372314 
	C349.933289,874.444824 348.256531,873.758728 347.144440,872.636230 
	C343.358307,868.814331 339.958405,869.166748 336.591003,873.666138 
z"/>
<path fill="#000000" opacity="1.000000" stroke="none" 
	d="
M187.394592,774.408569 
	C194.951279,766.651489 203.771744,760.907227 211.352966,753.721008 
	C212.906830,752.247986 214.810120,752.433228 216.161713,754.170410 
	C218.141205,756.714722 221.390305,758.418030 221.433456,762.287903 
	C221.454636,764.186279 223.043991,764.511536 224.570770,764.864380 
	C227.079132,765.444153 229.123627,766.825928 230.739670,768.836487 
	C234.474701,773.483337 234.473221,776.271729 230.728989,779.009888 
	C226.063126,782.422058 222.055206,781.932251 218.988037,777.413757 
	C216.724167,774.078735 213.971558,774.139771 210.779358,775.800354 
	C203.901611,779.377930 198.729492,785.104858 192.932861,790.026123 
	C188.239182,794.010864 186.508270,794.371033 183.363907,790.942566 
	C178.317703,785.440430 178.047104,782.206665 182.418213,778.302795 
	C183.896545,776.982544 185.552567,775.861145 187.394592,774.408569 
z"/>
<path fill="#000000" opacity="1.000000" stroke="none" 
	d="
M169.535873,681.661499 
	C171.916061,685.232483 172.322174,688.153015 168.255630,690.263672 
	C157.367477,695.914917 146.500687,701.608276 135.568634,707.173340 
	C133.455154,708.249329 130.924637,710.358032 128.714111,708.149292 
	C126.026878,705.464233 124.474472,701.860168 123.736694,698.091553 
	C123.449844,696.626343 124.872978,695.758911 126.042656,695.118713 
	C137.960983,688.595093 149.884079,682.063721 162.280029,676.487854 
	C166.696198,674.501404 167.984177,678.229126 169.535873,681.661499 
z"/>
<path fill="#000000" opacity="1.000000" stroke="none" 
	d="
M844.085205,411.217926 
	C841.754578,414.174347 839.593689,415.025024 837.021851,411.885895 
	C834.954529,409.362671 832.970398,410.481506 831.171692,412.442322 
	C829.809387,413.927277 828.382507,415.726624 826.131714,414.212189 
	C824.176331,412.896484 823.246277,410.606018 824.026978,408.483337 
	C825.742371,403.819061 825.340515,399.427094 823.535034,394.957092 
	C822.913940,393.419342 823.414062,391.968506 824.775269,390.974884 
	C826.381409,389.802490 828.201477,389.379913 829.868530,390.666992 
	C832.121643,392.406555 833.951294,392.860046 836.420166,390.698364 
	C838.201843,389.138458 840.237305,390.579620 841.638306,392.112061 
	C843.492798,394.140717 843.435181,396.623688 841.749329,398.489838 
	C839.116699,401.403839 838.964111,403.438232 842.603577,405.549835 
	C844.505066,406.653107 844.817871,408.756927 844.085205,411.217926 
z"/>
<path fill="#000000" opacity="1.000000" stroke="none" 
	d="
M664.835571,188.953125 
	C666.364380,189.238922 667.562073,189.346085 668.599304,189.811157 
	C670.381165,190.610077 671.614319,191.992554 671.351868,194.095978 
	C671.113037,196.010071 669.697937,197.041916 667.932007,197.197021 
	C664.182007,197.526413 662.142944,199.131271 662.400146,203.184418 
	C662.486633,204.548065 661.611023,205.800461 660.171082,206.182007 
	C657.990845,206.759735 655.930176,205.853760 654.886292,204.180298 
	C652.656250,200.605057 649.828125,198.294739 645.671814,197.282547 
	C643.645386,196.789047 642.447815,194.954590 642.692810,192.635864 
	C642.957336,190.132294 644.694275,189.421768 646.897156,189.290375 
	C647.682556,189.243530 648.460449,189.070419 649.221069,188.958008 
	C649.406311,188.242996 649.605225,187.777649 649.637329,187.301056 
	C649.812378,184.701996 649.056885,181.149597 652.114807,180.355881 
	C655.547913,179.464767 657.301880,183.046356 658.596985,185.478333 
	C660.005249,188.122742 661.639526,189.200150 664.835571,188.953125 
z"/>
<path fill="#000000" opacity="1.000000" stroke="none" 
	d="
M779.975281,270.011108 
	C783.797302,274.721558 784.294373,279.378448 781.580811,282.992645 
	C779.330811,285.989349 773.589050,287.197235 769.693909,285.493164 
	C765.335144,283.586212 763.034546,279.011993 763.875671,273.924866 
	C764.963074,267.348206 773.683105,265.030151 779.975281,270.011108 
z"/>
<path fill="#000000" opacity="1.000000" stroke="none" 
	d="
M89.882401,334.220459 
	C93.155312,338.672913 91.725121,342.036102 88.047348,344.755005 
	C83.004700,348.482880 78.847488,348.347107 75.454056,344.592194 
	C69.563217,338.073853 70.531158,331.979614 78.030380,329.216644 
	C83.211029,327.307922 86.458641,330.672058 89.882401,334.220459 
z"/>
<path fill="#000000" opacity="1.000000" stroke="none" 
	d="
M182.085724,668.678711 
	C185.062027,671.217285 185.489609,674.700684 186.857407,677.660950 
	C187.787094,679.672974 186.166565,681.379578 184.513794,682.016846 
	C181.653732,683.119568 179.222412,686.614685 175.504959,684.060547 
	C172.884705,682.260315 169.227448,675.206116 170.417465,673.544739 
	C173.152390,669.726501 176.830353,667.536560 182.085724,668.678711 
z"/>
</svg>