<?xml version="1.0" standalone="no"?>
<!DOCTYPE svg PUBLIC "-//W3C//DTD SVG 20010904//EN"
 "http://www.w3.org/TR/2001/REC-SVG-20010904/DTD/svg10.dtd">
<svg version="1.0" xmlns="http://www.w3.org/2000/svg"
 width="1500.000000pt" height="1500.000000pt" viewBox="0 0 1500.000000 1500.000000"
 preserveAspectRatio="xMidYMid meet">

<g transform="translate(0.000000,1500.000000) scale(0.100000,-0.100000)"
fill="#000000" stroke="none">
<path d="M0 11550 c0 -3111 2 -3492 21 -3447 1 1 5 47 9 102 14 166 52 443
100 732 12 77 48 229 88 374 12 42 24 96 28 120 4 24 11 47 16 50 4 3 15 37
22 75 8 38 21 87 30 109 8 22 15 52 16 66 0 14 3 29 7 33 4 4 13 24 19 44 13
40 102 292 154 437 18 49 38 94 45 100 7 5 16 24 19 40 4 17 15 48 26 70 10
22 35 78 56 125 62 145 294 597 328 640 7 8 17 26 24 40 7 14 17 34 24 45 7
11 26 42 43 70 16 27 35 56 40 65 6 9 19 31 30 49 47 77 148 228 166 247 10
11 19 25 19 30 0 6 8 19 18 30 9 10 29 37 45 59 39 57 98 137 127 173 14 17
36 47 50 67 33 48 92 121 135 166 19 21 35 39 35 43 0 3 18 25 39 48 22 24 77
86 123 139 46 53 109 120 141 149 31 28 57 56 57 60 0 9 191 200 200 200 3 0
39 34 80 76 41 42 133 126 204 186 141 117 191 159 246 207 19 17 38 31 43 31
5 0 23 12 41 26 79 65 158 124 166 124 5 0 25 16 44 35 20 19 41 35 48 35 6 0
22 10 34 21 13 12 32 27 42 33 11 6 48 31 83 56 67 48 138 92 179 112 14 6 34
19 45 28 40 32 284 174 431 250 44 22 86 45 94 50 15 9 193 95 353 169 49 23
93 41 98 41 5 0 27 9 49 20 22 11 47 20 56 20 10 0 25 6 33 14 37 32 500 194
731 256 63 17 138 37 165 45 64 19 169 45 220 55 22 4 54 13 70 19 28 9 111
26 340 67 109 19 169 28 345 49 74 9 154 20 177 25 23 6 127 12 230 15 214 7
273 12 273 26 0 5 -1367 9 -3610 9 l-3610 0 0 -3450z"/>
<path d="M7770 14991 c0 -11 84 -20 245 -25 136 -4 439 -36 625 -66 69 -11
154 -25 190 -30 124 -19 563 -117 594 -133 11 -5 45 -16 75 -23 186 -44 381
-102 433 -130 14 -8 32 -14 38 -14 22 0 260 -90 346 -131 22 -10 46 -19 52
-19 7 0 29 -9 49 -20 21 -11 44 -20 51 -20 7 0 30 -8 50 -19 20 -10 57 -28 82
-39 254 -116 656 -330 814 -432 33 -22 68 -44 91 -58 11 -6 40 -24 65 -39 25
-15 68 -44 97 -65 29 -21 56 -38 61 -38 5 0 17 -9 27 -20 10 -11 42 -33 71
-50 30 -17 54 -34 54 -39 0 -4 28 -27 63 -49 34 -23 76 -53 92 -66 17 -14 62
-49 100 -78 39 -29 79 -60 89 -70 11 -10 23 -18 27 -18 4 0 10 -9 14 -19 3
-11 16 -23 28 -27 61 -19 615 -548 805 -769 29 -33 72 -82 97 -110 24 -27 55
-64 67 -81 13 -18 46 -59 73 -92 28 -33 79 -97 115 -142 36 -45 75 -94 87
-109 13 -14 23 -31 23 -37 0 -5 14 -23 30 -39 17 -16 30 -32 30 -37 0 -5 19
-35 43 -69 23 -33 52 -76 63 -96 12 -19 26 -38 31 -42 4 -3 28 -37 52 -76 24
-38 56 -88 71 -110 42 -63 150 -252 150 -263 0 -5 7 -16 16 -23 9 -7 29 -38
44 -69 15 -30 34 -68 43 -85 8 -16 20 -41 26 -55 6 -14 25 -50 42 -80 17 -30
51 -100 76 -155 44 -97 80 -175 129 -281 13 -28 24 -56 24 -62 0 -6 7 -23 14
-39 13 -24 46 -110 110 -283 22 -58 37 -102 51 -150 15 -53 33 -104 50 -145
11 -25 38 -116 84 -280 9 -30 57 -229 71 -295 4 -19 17 -75 29 -125 12 -49 21
-103 21 -120 0 -16 7 -51 15 -77 7 -26 19 -91 25 -145 6 -53 15 -100 21 -104
6 -3 10 -10 9 -15 -2 -10 10 -202 15 -246 2 -14 8 -35 14 -46 6 -12 11 -65 11
-120 0 -107 7 -162 21 -162 5 0 9 1502 9 3490 l0 3490 -3615 0 c-2195 0 -3615
-4 -3615 -9z"/>
<path d="M7145 14629 c-210 -7 -400 -26 -695 -68 -152 -22 -626 -114 -710
-137 -128 -36 -221 -64 -316 -93 -55 -17 -109 -31 -120 -31 -11 0 -28 -6 -39
-13 -11 -8 -76 -33 -145 -56 -69 -23 -138 -48 -155 -55 -30 -13 -48 -20 -155
-57 -30 -11 -59 -24 -64 -29 -6 -6 -16 -10 -23 -10 -7 0 -74 -29 -148 -65 -75
-36 -139 -65 -142 -65 -10 0 -279 -137 -358 -183 -38 -22 -90 -50 -115 -63
-25 -12 -60 -34 -79 -48 -19 -14 -43 -26 -52 -26 -9 0 -19 -7 -23 -15 -5 -14
-37 -33 -115 -70 -19 -9 -50 -29 -70 -45 -20 -16 -50 -37 -68 -47 -39 -22
-124 -79 -218 -148 -38 -28 -82 -56 -97 -63 -16 -6 -28 -16 -28 -21 0 -9 -119
-104 -177 -143 -14 -9 -35 -26 -47 -37 -12 -11 -86 -75 -166 -143 -79 -68
-170 -148 -201 -178 -231 -225 -284 -279 -359 -360 -47 -51 -96 -105 -110
-120 -14 -15 -41 -45 -60 -66 -19 -21 -51 -59 -70 -84 -37 -49 -51 -65 -185
-228 -47 -57 -85 -107 -85 -111 0 -4 -8 -16 -18 -27 -10 -10 -39 -50 -65 -89
-26 -38 -60 -88 -76 -110 -17 -22 -37 -53 -46 -70 -8 -16 -29 -45 -45 -63 -16
-19 -32 -44 -36 -55 -4 -12 -17 -36 -30 -53 -13 -17 -24 -35 -24 -41 0 -5 -9
-18 -20 -28 -11 -10 -20 -23 -20 -29 0 -6 -16 -35 -35 -63 -19 -29 -35 -56
-35 -60 0 -5 -12 -26 -26 -47 -59 -87 -257 -481 -334 -666 -13 -30 -29 -62
-36 -70 -6 -8 -17 -31 -23 -50 -12 -40 -53 -153 -68 -190 -23 -53 -83 -228
-83 -239 0 -7 -6 -25 -14 -39 -22 -43 -86 -248 -86 -275 0 -13 -7 -30 -15 -37
-7 -6 -17 -33 -20 -58 -4 -26 -15 -74 -26 -106 -10 -33 -19 -72 -19 -87 0 -15
-5 -31 -10 -34 -6 -3 -10 -21 -10 -40 0 -19 -5 -46 -10 -60 -10 -27 -24 -97
-59 -295 -11 -58 -22 -121 -25 -140 -20 -104 -49 -353 -66 -560 -36 -442 -36
-674 0 -1150 13 -177 43 -421 65 -540 8 -41 26 -142 40 -225 27 -149 33 -179
54 -265 7 -25 16 -74 22 -110 6 -36 16 -74 21 -85 6 -10 16 -44 23 -75 8 -30
21 -77 30 -105 9 -27 43 -132 76 -233 33 -101 71 -209 85 -240 14 -31 36 -91
50 -132 13 -41 29 -84 34 -95 5 -11 12 -31 16 -45 4 -14 15 -36 25 -49 11 -13
19 -28 19 -34 0 -18 131 -300 180 -387 11 -19 20 -40 20 -46 0 -15 57 -124 75
-144 7 -8 32 -51 55 -95 23 -44 75 -134 116 -200 41 -66 79 -131 85 -145 5
-14 16 -30 24 -36 13 -10 155 -217 164 -239 2 -5 16 -24 30 -42 30 -36 60 -76
81 -108 23 -35 107 -142 175 -222 33 -40 74 -90 90 -112 33 -44 39 -52 195
-222 125 -137 439 -449 451 -449 4 0 12 -7 16 -15 5 -8 60 -58 123 -111 63
-53 119 -103 123 -110 4 -8 13 -14 20 -14 7 0 30 -17 52 -38 22 -20 50 -44 62
-52 12 -8 58 -43 103 -77 45 -35 84 -63 87 -63 3 0 33 -23 68 -50 35 -28 66
-50 70 -50 4 0 22 -12 41 -27 66 -55 92 -73 106 -73 7 0 37 -17 66 -38 75 -54
150 -102 160 -102 5 0 19 -11 32 -25 13 -14 31 -25 40 -25 9 0 25 -9 34 -19
10 -11 32 -25 49 -32 18 -7 44 -20 58 -30 41 -28 445 -233 559 -283 58 -26
112 -50 121 -55 9 -5 50 -21 90 -35 41 -14 92 -35 114 -46 21 -11 46 -20 55
-20 9 0 25 -7 37 -15 11 -8 54 -26 94 -39 115 -39 192 -66 214 -76 11 -5 36
-12 55 -15 39 -8 182 -51 220 -67 14 -6 43 -14 65 -18 22 -4 85 -20 140 -35
55 -15 118 -31 140 -35 140 -26 222 -43 236 -50 9 -5 42 -11 75 -15 32 -4 84
-13 114 -20 30 -8 84 -17 120 -20 36 -3 106 -12 155 -20 50 -8 207 -24 349
-36 233 -19 302 -21 675 -15 229 3 450 11 491 16 41 5 120 14 175 19 55 5 134
14 175 20 41 6 107 15 145 21 96 14 177 29 260 47 39 9 102 22 140 30 121 23
158 32 215 47 30 9 65 16 78 16 13 0 33 5 45 12 12 7 60 22 107 35 47 12 110
30 140 39 30 8 69 20 85 24 83 24 228 76 267 96 14 8 31 14 38 14 15 0 207 75
296 116 39 17 102 44 140 59 94 37 156 66 172 82 7 7 18 13 24 13 10 0 139 59
178 81 8 5 35 19 60 32 25 13 82 45 127 70 45 26 87 47 94 47 6 0 25 12 43 26
31 25 233 154 242 154 5 0 197 128 278 185 24 17 56 39 72 50 16 11 40 30 54
42 14 13 28 23 32 23 4 0 36 25 72 55 35 30 72 55 81 55 8 0 18 7 21 15 4 8
35 38 70 65 70 57 113 93 154 130 15 14 50 43 79 65 28 22 54 48 57 57 3 10 9
18 14 18 5 0 48 38 96 85 48 47 89 85 91 85 7 0 93 87 93 94 0 3 38 44 85 91
47 48 85 91 85 96 0 5 8 13 19 17 16 6 73 70 178 198 17 21 52 64 78 96 25 31
53 59 61 62 7 3 14 12 14 21 0 8 20 40 45 71 25 30 53 67 62 82 10 15 38 52
63 83 25 31 53 69 63 85 9 16 28 45 42 64 61 87 110 161 135 205 10 17 43 71
74 122 31 50 56 96 56 101 0 5 11 17 25 26 15 10 25 26 25 40 0 13 8 34 19 47
10 13 28 44 39 69 12 25 35 68 51 95 17 28 33 57 37 65 28 64 128 261 135 266
5 3 9 15 9 27 0 12 8 36 19 52 10 17 23 46 29 65 7 19 28 66 47 104 19 39 35
75 35 82 0 12 70 196 94 249 8 17 17 44 21 60 4 17 12 44 20 60 18 43 44 120
62 190 8 33 26 96 39 140 24 85 80 314 130 530 16 71 21 100 48 255 8 47 19
105 25 130 6 25 11 68 11 96 0 28 7 91 16 140 25 137 37 413 37 809 0 358 -17
754 -34 787 -5 10 -14 77 -20 150 -5 73 -14 135 -20 139 -6 3 -10 10 -9 15 5
23 -14 149 -34 239 -43 184 -56 250 -56 281 0 18 -7 45 -15 60 -8 16 -15 38
-15 49 0 11 -11 52 -25 90 -13 39 -25 81 -25 94 0 21 -27 115 -66 231 -9 25
-19 62 -23 82 -5 21 -13 43 -19 50 -5 7 -19 42 -30 78 -31 99 -104 288 -153
396 -10 22 -27 65 -39 95 -12 30 -27 63 -34 74 -8 11 -16 34 -20 51 -4 18 -18
46 -32 65 -13 18 -24 43 -24 55 0 13 -5 26 -10 29 -6 4 -20 28 -32 53 -13 26
-42 82 -65 125 -24 42 -43 82 -43 89 0 6 -6 19 -14 27 -8 9 -29 45 -48 81 -18
36 -50 91 -71 123 -20 31 -37 60 -37 63 0 4 -38 65 -126 198 -22 32 -49 77
-62 100 -13 23 -34 52 -46 66 -13 14 -46 59 -75 101 -28 42 -58 82 -66 89 -8
7 -15 17 -15 22 0 5 -24 37 -54 72 -30 35 -57 73 -61 85 -3 12 -10 21 -15 21
-5 0 -27 24 -48 53 -45 60 -218 262 -277 323 -147 150 -245 254 -245 261 0 4
-14 16 -30 25 -17 9 -35 29 -40 43 -5 14 -15 25 -22 25 -7 0 -44 30 -83 66
-206 192 -417 374 -434 374 -5 0 -22 13 -38 29 -16 15 -43 36 -60 45 -18 9
-38 25 -47 37 -8 12 -24 27 -35 33 -10 6 -46 29 -78 52 -114 79 -304 209 -321
219 -9 6 -48 28 -87 50 -38 21 -84 49 -101 62 -17 13 -35 23 -39 23 -5 0 -16
6 -24 14 -9 8 -61 38 -116 67 -55 28 -109 60 -121 70 -11 11 -27 19 -36 19 -9
0 -21 7 -28 15 -6 8 -22 17 -33 20 -12 4 -85 37 -162 75 -135 65 -307 141
-352 154 -11 4 -27 13 -33 21 -7 8 -22 15 -34 15 -11 0 -34 7 -50 15 -32 17
-132 53 -351 126 -82 28 -154 55 -159 60 -6 5 -19 9 -30 9 -20 0 -113 26 -217
61 -31 11 -65 19 -75 19 -10 1 -37 7 -59 15 -22 9 -71 20 -110 25 -38 6 -83
15 -100 20 -16 5 -66 16 -110 24 -44 9 -102 21 -130 27 -27 6 -80 15 -117 20
-38 5 -98 13 -135 19 -234 33 -395 52 -513 60 -210 13 -643 18 -885 9z m207
-556 c10 -9 18 -22 18 -29 0 -17 -130 -148 -177 -177 -52 -33 -66 -52 -93
-124 -38 -106 -20 -230 40 -275 37 -27 249 -46 329 -30 31 7 67 12 80 12 13 0
35 7 49 15 35 19 200 95 207 95 3 0 26 15 52 34 27 18 80 50 118 69 39 19 85
47 104 61 19 14 43 26 52 26 10 0 21 4 24 10 3 5 49 33 100 61 52 28 97 54
100 59 3 5 24 11 48 15 23 4 49 13 57 19 17 15 123 50 193 66 34 7 73 7 129 0
146 -18 225 -84 288 -242 41 -101 36 -140 -30 -240 -39 -59 -57 -77 -97 -95
-26 -12 -75 -43 -108 -68 -33 -25 -67 -45 -77 -45 -10 0 -47 -11 -84 -25 -40
-15 -87 -25 -118 -25 -54 0 -94 19 -82 38 13 21 89 59 176 88 47 16 88 33 91
38 4 5 9 29 13 55 18 142 18 153 2 195 -15 39 -25 48 -99 86 -66 35 -95 44
-149 48 -63 4 -73 2 -145 -33 -43 -21 -91 -47 -108 -59 -16 -11 -51 -31 -76
-42 -26 -12 -50 -27 -53 -33 -4 -6 -38 -26 -76 -44 -66 -33 -107 -57 -209
-122 -26 -17 -62 -37 -81 -45 -19 -7 -49 -23 -66 -36 -17 -13 -44 -26 -60 -30
-16 -4 -36 -12 -44 -19 -18 -15 -241 -92 -320 -111 -75 -18 -237 -9 -311 17
-38 14 -71 36 -103 68 -44 45 -46 50 -57 131 -12 96 -8 130 24 232 18 57 34
84 70 121 26 26 58 52 73 57 14 6 28 19 31 29 3 11 17 24 32 29 14 5 43 24 65
41 21 17 42 31 47 31 5 0 25 15 45 33 36 31 120 84 138 86 5 1 18 -6 28 -16z
m2695 -271 c18 -21 42 -57 54 -81 24 -51 137 -181 158 -181 7 0 28 -9 45 -19
72 -44 300 -101 500 -126 70 -9 150 -25 177 -35 27 -11 61 -20 74 -20 13 0 27
-5 30 -10 3 -6 23 -19 43 -29 94 -47 109 -56 144 -83 48 -37 123 -152 132
-200 4 -21 11 -38 15 -38 16 0 19 -38 6 -63 -7 -14 -18 -41 -24 -60 -15 -45
-104 -138 -158 -166 -56 -28 -95 -27 -170 6 -75 32 -96 66 -69 108 9 13 27 27
41 31 29 7 75 83 75 123 -1 14 -7 37 -15 51 -8 14 -14 35 -15 48 0 36 -88 120
-156 149 -133 56 -332 105 -546 133 -81 10 -161 26 -177 34 -17 9 -44 16 -60
16 -26 0 -36 -9 -75 -68 -24 -37 -51 -74 -60 -81 -9 -7 -16 -20 -16 -27 0 -8
-13 -28 -30 -46 -16 -17 -30 -36 -30 -41 0 -6 -12 -28 -26 -48 -49 -71 -65
-190 -33 -251 34 -65 171 -144 237 -136 41 5 42 53 2 96 -34 38 -39 76 -11 92
36 19 190 6 255 -21 84 -34 101 -61 101 -157 l0 -76 44 -13 c24 -7 79 -15 122
-17 51 -4 99 -14 136 -30 55 -22 60 -28 96 -96 20 -39 37 -86 37 -104 0 -37
-47 -117 -82 -139 -36 -24 -300 -47 -342 -31 -9 3 -16 13 -16 22 0 17 75 92
91 92 9 0 49 77 49 94 -1 16 -41 62 -80 91 -56 41 -140 31 -207 -24 -21 -17
-43 -31 -50 -31 -20 0 -63 -72 -63 -104 0 -22 11 -40 45 -72 49 -46 54 -58 27
-73 -77 -41 -250 -3 -308 67 -71 85 -66 156 16 237 27 28 50 57 50 67 0 17
-86 50 -165 62 -72 11 -225 84 -225 108 0 5 -16 25 -35 46 -30 34 -35 48 -41
109 -5 48 -3 72 5 77 6 4 11 22 11 39 1 45 51 152 102 216 24 30 47 61 53 70
5 9 19 30 31 46 23 34 69 128 79 163 4 13 -1 56 -9 96 -13 56 -25 83 -56 120
-22 27 -40 54 -40 62 0 37 121 75 215 67 54 -4 63 -9 92 -41z m-5216 -234 c22
-6 56 -26 77 -44 36 -31 39 -38 51 -117 l13 -84 -36 -69 c-59 -116 -135 -179
-172 -143 -7 8 -17 38 -21 68 l-8 53 -73 24 -73 23 -64 -26 c-36 -15 -65 -30
-65 -35 0 -5 -12 -14 -27 -21 -34 -15 -124 -110 -147 -154 -9 -18 -20 -33 -24
-33 -10 0 -52 -73 -52 -89 0 -19 -144 -213 -208 -280 -39 -40 -40 -68 -6 -127
16 -27 29 -69 34 -108 9 -73 61 -199 97 -234 14 -13 28 -35 33 -47 14 -36 70
-48 149 -32 36 8 69 21 76 30 7 9 31 24 55 32 39 14 123 80 143 112 5 8 6 31
2 52 -5 30 -14 42 -40 57 -31 17 -37 17 -90 2 -51 -14 -57 -14 -72 0 -19 19
-12 71 15 110 11 15 25 44 31 64 15 46 91 118 126 118 32 0 100 -34 143 -72
19 -16 41 -28 50 -26 19 3 64 82 81 140 15 49 110 144 175 174 37 17 69 24
116 24 58 0 69 -3 103 -31 35 -29 37 -34 37 -87 -1 -31 -8 -75 -16 -97 -9 -22
-22 -62 -31 -90 -8 -27 -24 -58 -36 -68 -20 -17 -21 -17 -39 1 -11 10 -25 41
-32 68 l-12 49 -67 3 c-64 3 -67 2 -106 -34 -23 -20 -55 -60 -72 -90 -27 -48
-30 -60 -24 -104 8 -59 55 -137 88 -145 17 -5 36 2 62 19 41 28 74 33 93 14
19 -19 14 -40 -18 -78 -17 -19 -30 -39 -30 -46 0 -6 -9 -19 -21 -30 -12 -10
-27 -31 -34 -45 -21 -39 -83 -82 -118 -81 -54 1 -120 41 -156 93 -18 27 -37
49 -42 49 -5 0 -16 -15 -25 -32 -9 -18 -26 -44 -39 -58 -12 -14 -29 -37 -36
-51 -16 -30 -131 -134 -172 -155 -55 -29 -178 -54 -231 -48 -80 9 -110 22
-148 62 -61 64 -110 173 -123 274 -5 41 -16 67 -71 170 -25 46 -93 58 -259 46
-40 -3 -40 -3 -43 35 -2 21 4 62 12 91 9 30 16 65 16 78 0 30 25 54 65 64 17
4 57 17 90 29 33 12 86 30 118 39 32 10 72 30 90 45 18 15 49 38 70 50 20 12
37 28 37 35 0 7 11 24 24 37 14 13 41 40 60 59 20 19 36 40 36 45 0 6 20 37
45 70 25 33 52 74 59 90 7 17 32 52 55 80 22 27 41 53 41 58 0 18 184 207 201
207 6 0 25 10 41 22 17 11 49 25 72 30 22 5 57 13 76 17 51 13 78 12 121 -1z
m1239 -4 c93 -15 180 -87 215 -177 22 -59 17 -175 -10 -227 -50 -97 -105 -138
-212 -159 -63 -12 -83 -10 -164 15 -95 30 -179 156 -179 268 0 78 54 206 86
206 8 0 14 4 14 10 0 22 149 82 185 75 11 -2 40 -7 65 -11z m3528 -1234 c18
-22 38 -54 44 -70 9 -28 13 -30 45 -25 49 7 110 -11 118 -35 11 -34 -4 -58
-38 -65 -75 -15 -87 -24 -87 -70 0 -83 -58 -86 -115 -6 -36 50 -52 61 -86 61
-10 0 -33 13 -51 29 -29 26 -31 31 -20 55 10 22 18 26 57 26 48 0 49 1 46 62
-3 44 13 78 37 78 9 0 32 -18 50 -40z m-6434 -21 c77 -21 126 -106 126 -220 0
-65 -31 -156 -66 -197 -29 -33 -34 -35 -47 -22 -9 8 -18 40 -22 70 -4 30 -11
60 -17 67 -5 7 -33 19 -62 27 -43 13 -58 13 -95 2 -36 -10 -49 -21 -77 -67
-19 -31 -38 -78 -43 -109 -13 -72 -34 -295 -36 -379 -1 -66 -8 -123 -25 -216
-51 -277 -39 -407 44 -497 19 -21 38 -38 41 -38 4 0 18 -9 32 -20 25 -19 27
-19 53 -3 71 46 99 108 100 219 0 118 64 142 85 32 30 -148 26 -359 -9 -425
-17 -34 -92 -98 -131 -113 -37 -14 -73 -12 -125 6 -47 16 -210 120 -210 133 0
5 -11 25 -25 45 -13 20 -27 59 -31 87 -4 28 -12 53 -19 55 -15 6 -53 -14 -88
-47 -58 -56 -133 -53 -211 6 -60 46 -107 171 -122 322 -6 62 -3 82 16 132 24
64 40 77 72 60 19 -10 20 -17 13 -100 -6 -77 -4 -93 12 -116 10 -16 23 -37 29
-48 16 -29 71 -58 97 -51 59 16 210 202 240 297 32 101 74 454 69 589 -1 14
11 79 25 145 28 128 89 268 138 314 14 13 25 27 25 32 0 14 91 38 150 38 30 1
72 -4 94 -10z m4866 -277 c189 -24 265 -35 370 -58 41 -8 95 -19 120 -24 174
-34 577 -164 745 -240 28 -13 64 -29 80 -36 17 -7 83 -38 148 -69 65 -30 121
-55 125 -55 4 0 13 -9 20 -20 7 -11 23 -20 35 -20 13 0 38 -11 57 -25 19 -14
39 -25 46 -25 6 0 35 -16 63 -35 28 -19 54 -35 59 -35 5 0 19 -11 32 -25 13
-14 29 -25 37 -25 7 0 33 -15 57 -32 25 -18 59 -43 78 -56 112 -78 215 -155
294 -221 56 -47 65 -58 62 -84 -3 -26 -14 -35 -111 -85 -90 -48 -110 -55 -125
-44 -9 6 -32 18 -50 26 -18 8 -35 22 -38 31 -4 8 -36 36 -73 60 -36 25 -84 58
-106 74 -22 16 -85 57 -140 92 -55 34 -109 70 -120 79 -11 9 -31 22 -45 28
-14 7 -32 16 -40 21 -44 25 -258 137 -290 152 -14 6 -56 25 -95 41 -38 16 -83
36 -100 43 -37 18 -158 63 -205 77 -19 5 -67 21 -107 34 -40 14 -114 36 -165
49 -51 13 -118 31 -148 40 -56 17 -82 22 -225 45 -44 7 -89 16 -100 21 -36 15
-436 51 -620 56 -99 2 -229 0 -290 -6 -221 -20 -392 -41 -470 -56 -44 -8 -105
-20 -135 -25 -30 -6 -80 -17 -110 -25 -30 -8 -75 -15 -99 -15 -39 0 -49 5 -83
42 -21 23 -38 47 -38 54 0 7 -9 18 -20 24 -26 14 -53 66 -45 90 9 30 34 44 89
51 28 4 65 11 81 17 100 36 446 93 680 112 55 4 246 6 425 5 255 -2 361 -7
490 -23z m4010 -41 c69 -6 181 -16 250 -21 193 -17 325 -46 388 -88 29 -19 57
-42 62 -52 13 -25 13 -351 0 -535 -18 -246 -40 -356 -89 -450 -84 -157 -140
-190 -356 -207 -148 -12 -175 -8 -405 63 -63 20 -120 59 -134 92 -22 51 -36
123 -36 181 0 97 -21 220 -41 238 -10 11 -46 22 -87 28 -167 23 -352 114 -387
189 -10 20 -24 49 -31 64 -19 40 -18 163 3 228 9 30 30 70 46 89 48 57 149
140 172 140 12 0 48 9 81 20 117 40 273 45 564 21z m-6135 -226 c171 -38 304
-132 452 -321 44 -56 126 -231 143 -304 29 -122 33 -187 16 -275 -18 -91 -52
-201 -72 -230 -8 -11 -14 -26 -14 -34 0 -20 -119 -257 -136 -272 -8 -6 -14
-16 -14 -21 0 -16 -132 -224 -163 -258 -8 -8 -19 -25 -26 -37 -31 -60 -284
-384 -411 -527 -25 -28 -50 -60 -56 -71 -6 -11 -23 -26 -37 -33 -15 -7 -27
-19 -27 -26 0 -7 -15 -26 -32 -43 -18 -17 -45 -43 -59 -59 -53 -60 -275 -262
-374 -340 -33 -26 -81 -65 -107 -86 -26 -21 -50 -38 -54 -38 -4 0 -30 -15 -58
-33 -148 -97 -313 -136 -427 -102 -51 16 -64 25 -90 63 -16 24 -41 79 -55 121
-52 155 -25 452 57 627 10 23 19 45 19 49 0 4 11 31 24 59 13 28 28 62 34 76
7 14 23 43 37 65 13 22 34 57 45 78 25 45 85 133 112 162 10 11 44 54 77 95
82 103 217 232 239 228 24 -4 29 -81 7 -114 -8 -13 -20 -46 -26 -72 -5 -26
-14 -65 -19 -87 -5 -22 -9 -81 -10 -132 0 -111 20 -185 66 -240 l32 -38 98 0
c81 0 106 4 139 21 40 21 163 157 164 182 1 7 19 43 41 79 21 36 45 82 51 102
7 20 20 47 30 60 11 13 19 32 19 43 0 10 7 32 15 48 8 16 27 82 41 147 22 101
25 132 20 220 -6 89 -11 111 -42 175 -19 40 -38 78 -42 84 -106 163 -216 234
-361 234 -74 0 -175 -25 -210 -52 -13 -10 -30 -18 -37 -18 -8 0 -26 -11 -41
-24 -120 -105 -199 -181 -233 -224 -22 -28 -44 -52 -48 -54 -4 -2 -17 -17 -27
-34 -59 -94 -146 -222 -163 -239 -10 -11 -22 -33 -26 -49 -4 -16 -18 -43 -30
-60 -13 -17 -27 -42 -31 -56 -4 -14 -13 -32 -20 -40 -12 -14 -36 -59 -66 -120
-51 -107 -88 -191 -98 -222 -7 -20 -19 -42 -27 -48 -7 -7 -14 -21 -14 -31 0
-10 -9 -42 -19 -71 -24 -64 -53 -181 -77 -303 -13 -65 -17 -136 -17 -256 1
-166 1 -166 36 -255 19 -49 47 -113 62 -142 38 -76 184 -220 275 -271 83 -47
221 -110 255 -116 22 -4 46 -11 53 -17 6 -6 45 -16 85 -24 288 -53 317 -56
462 -58 139 -1 153 1 195 22 25 13 56 34 70 46 14 13 33 26 43 29 9 4 17 14
17 22 0 9 11 31 25 49 14 18 25 37 25 42 0 6 14 32 31 60 33 51 61 98 76 130
6 11 17 33 26 49 9 17 27 50 40 75 12 26 32 59 45 74 12 16 22 34 22 42 0 7
11 25 24 41 13 15 27 39 31 52 4 14 24 46 44 72 93 123 139 186 180 242 24 34
59 82 79 107 20 25 41 51 47 58 5 8 24 29 40 47 17 18 37 42 45 53 48 63 316
378 338 396 7 6 21 20 30 31 14 17 271 273 295 293 4 4 18 18 31 32 13 14 36
35 52 48 16 12 45 36 64 52 99 82 123 100 134 100 7 0 21 9 31 20 11 12 36 31
57 42 21 12 38 25 38 30 0 4 5 8 11 8 6 0 39 13 73 29 33 17 98 37 143 46 70
14 91 14 144 3 53 -11 69 -20 120 -68 39 -38 68 -77 91 -125 33 -70 33 -71 33
-225 0 -150 -1 -158 -34 -250 -18 -52 -44 -114 -57 -137 -13 -23 -24 -48 -24
-57 0 -8 -6 -21 -14 -29 -8 -8 -22 -32 -31 -53 -9 -21 -24 -48 -34 -59 -10
-11 -28 -38 -40 -60 -24 -43 -62 -98 -90 -130 -10 -11 -21 -32 -25 -47 -3 -15
-14 -29 -24 -33 -9 -3 -32 -30 -51 -61 -18 -31 -55 -82 -82 -114 -27 -33 -49
-62 -49 -66 0 -9 -83 -117 -115 -150 -11 -12 -40 -46 -65 -75 -95 -111 -168
-184 -255 -255 -49 -40 -101 -84 -115 -97 -14 -13 -43 -36 -65 -50 -22 -14
-71 -49 -110 -77 -38 -28 -83 -58 -99 -68 -16 -9 -40 -26 -55 -38 -14 -12 -41
-29 -58 -38 -18 -9 -33 -21 -33 -26 0 -6 -6 -10 -12 -10 -7 0 -49 -25 -93 -56
-44 -31 -96 -66 -115 -79 -19 -12 -44 -32 -54 -44 -11 -11 -24 -21 -30 -21 -7
0 -27 -16 -46 -36 l-34 -37 -4 -176 c-5 -214 9 -382 34 -436 18 -36 23 -40 94
-57 41 -10 101 -18 132 -18 64 0 200 39 264 76 22 13 46 24 53 24 7 0 26 11
43 25 16 14 35 25 43 25 7 0 18 7 25 15 15 18 177 125 189 125 4 0 16 9 25 19
10 11 29 22 44 26 14 3 38 15 52 25 39 28 102 39 211 40 123 0 151 -10 174
-61 19 -42 19 -52 -16 -264 -20 -116 -17 -535 5 -830 3 -38 6 -73 6 -77 0 -18
45 -6 79 20 20 16 58 42 84 58 27 16 62 41 78 57 16 15 34 27 39 27 4 0 23 12
40 27 18 15 45 34 60 42 15 9 62 42 104 74 l77 58 -7 52 c-3 29 -15 86 -25
129 -10 42 -19 87 -19 100 0 13 -4 28 -10 34 -20 20 -33 295 -21 439 6 75 15
144 20 153 5 9 17 42 27 72 25 79 82 195 105 216 10 9 19 22 19 28 0 16 100
165 140 208 8 9 29 33 45 53 82 98 268 266 333 299 17 9 32 21 32 26 0 6 12
16 28 22 15 7 38 22 52 34 29 25 137 64 179 64 16 0 49 -9 74 -20 40 -18 47
-26 53 -58 12 -64 -21 -189 -88 -332 -17 -36 -34 -76 -38 -90 -5 -14 -24 -63
-44 -110 -20 -46 -36 -88 -36 -93 0 -5 -9 -20 -20 -34 -11 -14 -20 -37 -20
-50 0 -14 -7 -52 -16 -85 -27 -104 -23 -154 15 -232 29 -59 39 -71 78 -88 78
-34 164 -9 313 92 30 21 64 47 74 59 11 11 28 21 38 21 11 0 22 9 25 20 3 11
8 20 12 20 4 0 22 14 41 31 96 85 212 192 285 261 44 43 94 88 111 100 17 13
43 38 58 56 15 17 32 32 37 32 12 0 99 86 99 99 0 6 4 11 9 11 5 0 42 34 83
76 82 85 101 104 120 120 7 6 23 24 36 40 12 16 38 48 56 72 19 23 56 75 82
115 26 39 55 81 64 92 10 11 21 31 25 45 4 14 15 34 24 45 33 39 91 208 117
340 21 104 24 391 6 453 -7 20 -21 67 -31 104 -11 37 -30 87 -42 110 -12 24
-25 50 -29 58 -13 27 -101 80 -135 80 -40 0 -101 -26 -141 -60 -42 -37 -102
-129 -124 -193 -22 -62 -27 -166 -9 -198 27 -52 90 -86 179 -99 99 -14 121
-36 78 -79 -192 -189 -400 -327 -597 -398 -72 -26 -85 -28 -241 -27 -147 1
-172 4 -224 24 -214 82 -221 291 -21 600 23 36 49 71 58 79 9 7 17 20 17 29 0
8 15 31 33 52 17 20 50 59 72 85 163 199 458 479 623 590 174 118 364 208 522
247 118 29 305 31 416 5 70 -16 199 -72 233 -100 9 -7 55 -33 103 -56 94 -47
161 -106 252 -221 47 -60 87 -153 71 -168 -9 -9 -79 53 -93 81 -13 27 -52 38
-52 16 0 -7 14 -53 31 -103 28 -82 32 -106 37 -242 3 -92 0 -182 -7 -232 -15
-101 -52 -251 -79 -317 -11 -27 -30 -75 -42 -105 -12 -30 -30 -64 -41 -76 -10
-11 -19 -27 -19 -36 0 -8 -9 -27 -20 -41 -11 -14 -20 -29 -20 -33 0 -4 -30
-52 -66 -106 -81 -119 -282 -359 -439 -522 -22 -23 -91 -95 -153 -161 -63 -65
-169 -170 -235 -233 -67 -63 -140 -132 -162 -153 -22 -21 -44 -39 -48 -39 -4
0 -15 -8 -25 -17 -10 -10 -36 -32 -58 -50 -21 -17 -68 -55 -103 -85 -63 -52
-116 -91 -276 -205 -44 -31 -83 -61 -87 -67 -3 -5 -19 -17 -35 -25 -64 -35
-98 -57 -117 -77 -12 -12 -41 -34 -66 -49 -25 -15 -47 -32 -50 -36 -3 -5 -24
-19 -46 -31 -46 -26 -69 -41 -169 -112 -38 -28 -80 -60 -92 -73 -12 -13 -28
-23 -36 -23 -7 0 -27 -15 -44 -32 -17 -18 -38 -39 -47 -46 -21 -17 -22 -181
-1 -267 8 -33 14 -78 15 -100 0 -51 47 -250 116 -497 13 -48 24 -96 24 -108 0
-12 5 -31 12 -43 6 -12 15 -38 19 -57 4 -19 22 -82 39 -140 54 -180 60 -203
75 -280 9 -41 20 -90 26 -109 6 -18 19 -119 29 -225 17 -190 16 -243 -8 -421
-9 -59 -62 -216 -82 -240 -5 -7 -21 -34 -35 -60 -62 -115 -184 -253 -345 -387
-67 -56 -101 -79 -182 -122 -25 -14 -63 -37 -84 -51 -83 -56 -106 -20 -79 123
26 137 28 512 2 662 -52 309 -48 287 -91 470 -25 104 -47 185 -65 240 -11 30
-31 102 -46 160 -36 139 -90 328 -105 365 -6 17 -11 31 -10 33 1 2 -2 15 -8
30 -5 15 -14 50 -20 77 -11 53 -23 100 -53 205 -10 36 -21 77 -24 93 -7 34
-43 37 -71 6 -10 -12 -35 -29 -54 -39 -19 -10 -44 -27 -54 -39 -11 -12 -24
-21 -29 -21 -5 0 -19 -9 -31 -21 -25 -25 -223 -173 -286 -213 -89 -57 -89 -57
-74 -139 8 -40 21 -119 29 -175 8 -57 22 -127 30 -155 8 -28 15 -70 15 -93 0
-24 5 -53 10 -66 6 -13 22 -84 36 -158 14 -74 32 -169 40 -210 8 -41 19 -102
25 -135 5 -33 14 -73 19 -90 5 -16 21 -93 35 -170 14 -77 33 -176 41 -220 36
-187 44 -273 44 -479 0 -222 -9 -295 -50 -405 -35 -92 -98 -193 -158 -253 -43
-43 -107 -99 -143 -126 -227 -169 -307 -230 -380 -294 -37 -32 -71 -58 -75
-58 -5 0 -27 -17 -49 -38 -61 -56 -233 -192 -243 -192 -5 0 -19 -11 -32 -25
-13 -14 -31 -25 -40 -25 -10 0 -38 -9 -64 -21 -43 -19 -61 -20 -224 -16 -153
4 -189 8 -262 30 -271 81 -498 242 -666 472 -24 33 -52 71 -62 85 -20 28 -112
231 -112 249 0 6 -8 37 -19 69 -59 184 -66 233 -65 487 1 195 5 251 19 300 9
33 20 83 24 110 18 117 162 475 216 535 7 8 17 28 20 43 4 16 16 34 26 40 11
7 19 16 19 21 0 12 65 109 112 167 21 26 38 51 38 55 0 8 24 37 92 110 15 16
33 35 40 43 121 131 281 274 407 363 36 27 79 59 95 73 16 13 44 31 62 40 18
9 36 20 39 25 3 5 44 30 90 56 64 34 87 52 91 71 9 36 -4 330 -16 351 -5 9
-21 87 -36 172 -30 173 -36 193 -69 210 -29 15 -96 5 -127 -19 -13 -10 -34
-22 -48 -26 -14 -4 -46 -18 -72 -31 -26 -13 -55 -24 -65 -24 -9 0 -26 -8 -37
-19 -23 -21 -184 -87 -237 -98 -19 -3 -43 -12 -54 -18 -30 -19 -180 -27 -265
-15 -178 25 -291 158 -320 375 -4 33 -13 89 -19 125 -15 90 -13 300 4 527 8
106 12 200 9 208 -8 19 -30 15 -143 -21 -40 -13 -82 -24 -91 -24 -10 0 -31 -7
-47 -14 -15 -8 -77 -24 -138 -36 -60 -12 -129 -25 -153 -31 -111 -24 -521 3
-589 39 -12 7 -28 12 -36 12 -32 0 -246 110 -259 134 -5 9 -16 16 -25 16 -19
0 -171 134 -219 193 -19 23 -40 54 -46 70 -7 15 -19 29 -28 32 -41 13 -179
315 -214 467 -14 62 -36 328 -31 390 8 124 26 272 41 328 22 87 84 248 139
365 13 28 33 70 44 95 11 25 25 52 30 60 5 8 25 49 45 90 35 74 45 93 154 285
31 55 60 108 64 117 4 10 11 18 16 18 5 0 15 12 23 28 15 30 14 28 122 192 99
150 128 191 152 217 11 11 46 56 78 99 31 44 81 105 111 137 29 32 58 69 65
83 6 13 22 29 36 34 14 5 25 15 25 21 0 15 80 103 149 163 31 27 59 56 62 65
4 9 20 23 35 31 16 8 38 22 49 32 32 30 106 82 158 111 26 16 47 32 47 38 0 6
20 19 45 30 25 11 49 29 55 39 6 11 18 20 27 20 14 0 66 26 243 121 8 5 40 22
70 39 86 48 215 70 385 65 77 -2 172 -11 210 -20z m5472 -684 c6 -3 25 -23 42
-45 91 -114 -28 -254 -162 -190 -46 22 -66 60 -69 129 -2 50 1 59 22 76 55 45
118 56 167 30z m-8976 -915 c84 -65 130 -123 134 -169 16 -169 17 -256 1 -330
-18 -91 -31 -118 -83 -173 -31 -34 -47 -42 -88 -48 -27 -5 -57 -12 -65 -16
-11 -6 -36 2 -75 24 -98 53 -125 71 -125 80 0 8 -29 46 -92 118 -16 17 -28 40
-28 51 0 27 -67 107 -89 107 -10 0 -30 9 -45 21 -29 23 -91 35 -130 25 -29 -7
-102 -76 -111 -106 -4 -13 4 -40 23 -78 17 -31 41 -86 55 -122 27 -72 44 -82
96 -56 16 9 41 16 54 16 36 0 134 -36 168 -62 67 -52 132 -117 154 -154 101
-165 140 -316 129 -498 -9 -167 -52 -335 -116 -451 -15 -27 -37 -70 -48 -94
-11 -25 -30 -51 -41 -59 -11 -8 -24 -25 -29 -38 -16 -42 -102 -77 -201 -82
-92 -5 -141 6 -183 39 -32 25 -96 140 -101 181 -15 130 -16 157 -6 196 8 29
20 46 36 54 40 18 54 -3 57 -85 3 -69 4 -71 38 -90 19 -10 39 -25 43 -33 12
-21 99 -18 128 5 13 10 34 22 47 25 60 19 157 148 187 247 4 13 18 47 31 76
54 117 64 223 26 283 -47 76 -157 179 -227 212 -33 15 -66 28 -72 28 -26 0
-143 -60 -143 -74 0 -7 -16 -45 -35 -84 -41 -80 -66 -95 -93 -54 -14 22 -17
52 -17 195 l0 169 -30 24 c-33 26 -75 38 -121 32 l-29 -3 0 -156 c0 -140 -2
-159 -19 -178 -11 -12 -25 -21 -32 -21 -46 0 -74 148 -73 395 0 158 1 173 23
210 26 46 60 66 125 73 71 7 81 22 81 112 0 100 20 157 78 218 70 73 134 107
202 106 68 -1 138 -32 165 -74 11 -16 28 -33 37 -36 19 -6 78 -88 78 -108 0
-15 47 -80 79 -111 12 -11 34 -32 50 -48 38 -36 107 -67 151 -67 19 0 53 11
75 23 34 20 40 28 39 55 -1 18 -10 44 -20 58 -11 14 -26 38 -34 52 -8 15 -25
41 -38 59 -12 17 -22 37 -22 45 0 17 -24 86 -33 94 -21 21 11 84 42 84 10 0
38 -15 62 -34z m-1185 11 c60 -35 104 -87 104 -125 0 -53 -62 -102 -145 -116
-38 -7 -42 -5 -80 40 -77 92 -78 97 -22 161 46 52 98 67 143 40z m12423 -152
c21 -19 45 -35 54 -35 22 0 77 -85 77 -120 0 -16 -18 -69 -39 -118 -36 -82
-40 -98 -41 -183 -1 -52 1 -112 5 -134 10 -57 45 -145 72 -178 13 -16 23 -34
23 -42 0 -7 7 -18 16 -26 9 -7 23 -27 32 -45 9 -17 29 -49 43 -70 58 -88 125
-233 140 -305 12 -55 7 -164 -9 -196 -5 -10 -20 -40 -33 -66 -30 -60 -108
-111 -186 -122 -45 -6 -57 -3 -95 19 -40 23 -59 45 -141 159 -32 45 -33 83 -2
103 17 11 26 10 60 -6 50 -24 69 -19 122 33 83 80 80 205 -12 386 -19 38 -39
73 -45 76 -6 4 -22 30 -35 58 -13 29 -36 72 -50 96 -48 81 -75 136 -98 205
-29 87 -52 100 -202 115 -147 15 -219 14 -284 -3 -64 -18 -85 -36 -118 -100
-24 -48 -25 -49 -9 -112 9 -35 16 -77 16 -94 0 -64 31 -88 79 -64 42 21 46 30
43 95 -4 70 12 88 57 65 16 -9 43 -33 58 -53 15 -21 35 -43 44 -50 9 -7 29
-38 44 -70 25 -54 27 -61 16 -103 -12 -46 -45 -90 -66 -90 -7 0 -20 -9 -29
-19 -10 -10 -33 -22 -52 -26 -19 -3 -37 -12 -40 -20 -3 -8 15 -56 41 -107 38
-77 48 -107 55 -178 5 -46 7 -95 5 -107 -3 -13 -7 -34 -10 -48 -7 -30 -73 -75
-112 -75 -72 0 -231 125 -249 195 -10 41 22 70 61 55 58 -22 107 16 107 82 0
46 -49 190 -69 206 -18 13 -170 17 -189 4 -6 -4 -19 -21 -28 -39 -22 -43 -31
-47 -67 -26 -42 25 -95 100 -113 163 -14 48 -14 56 0 86 26 55 57 69 154 69
l85 0 -1 30 c-1 17 -10 53 -22 80 -59 142 -73 245 -44 318 23 58 103 147 135
147 12 1 33 7 47 15 31 18 264 21 307 4 44 -17 291 -16 308 2 7 8 27 50 44 94
46 116 73 130 140 70z m-1484 -755 c10 -11 26 -20 35 -20 9 0 25 9 35 20 22
24 43 25 73 4 31 -21 29 -70 -4 -105 -30 -32 -25 -75 12 -89 46 -18 59 -79 22
-104 -32 -23 -57 -20 -70 9 -9 20 -18 25 -48 25 -29 0 -41 -6 -58 -30 -28 -37
-56 -38 -79 -4 -16 24 -16 30 0 88 16 61 14 94 -10 156 -11 27 -7 51 11 62 21
14 63 8 81 -12z m-419 -62 c15 -29 30 -64 35 -78 4 -14 21 -61 38 -105 17 -44
31 -88 31 -97 0 -9 6 -29 14 -45 25 -50 65 -185 81 -277 8 -49 22 -111 30
-139 8 -28 15 -68 15 -89 0 -21 7 -55 15 -74 8 -20 20 -88 25 -152 6 -65 15
-126 20 -137 5 -11 11 -78 15 -150 3 -71 8 -165 11 -208 15 -205 -31 -827 -71
-959 -8 -28 -15 -63 -15 -77 0 -42 -77 -359 -92 -375 -4 -6 -8 -21 -8 -34 0
-24 -51 -192 -75 -247 -7 -16 -28 -68 -45 -115 -18 -47 -38 -96 -46 -110 -7
-14 -31 -68 -52 -120 -22 -52 -56 -125 -76 -163 -20 -37 -40 -75 -44 -85 -43
-89 -114 -212 -122 -212 -5 0 -12 -9 -15 -20 -4 -11 -17 -32 -29 -48 -13 -15
-27 -38 -31 -52 -4 -14 -22 -44 -39 -67 -17 -24 -47 -66 -66 -94 -19 -28 -46
-64 -60 -79 -26 -30 -55 -67 -80 -105 -95 -142 -408 -465 -630 -652 -80 -67
-156 -132 -170 -145 -14 -13 -29 -25 -35 -28 -6 -3 -40 -26 -75 -53 -156 -114
-203 -147 -215 -147 -6 0 -22 -9 -35 -20 -13 -11 -29 -20 -35 -20 -7 0 -18 -6
-24 -14 -17 -21 -206 -129 -321 -185 -36 -17 -86 -42 -113 -56 -26 -14 -53
-25 -61 -25 -7 0 -33 -11 -57 -24 -24 -13 -89 -40 -144 -61 -55 -20 -113 -43
-130 -50 -130 -59 -700 -205 -802 -205 -26 -1 -59 -7 -73 -15 -14 -8 -47 -15
-75 -15 -57 0 -326 -27 -367 -36 -20 -5 -33 0 -52 19 -41 41 -43 38 91 147 34
27 67 50 72 50 6 0 18 11 27 25 20 31 87 62 151 70 199 26 582 104 625 126 10
5 37 14 60 19 24 5 88 25 143 45 55 20 125 44 156 54 31 10 108 41 172 70 64
28 122 51 130 51 8 0 20 7 27 15 7 8 20 15 29 15 9 0 36 14 60 30 24 17 48 30
52 30 5 0 30 13 56 30 26 16 54 30 62 30 8 0 21 7 30 15 19 19 136 95 145 95
3 0 25 13 48 30 22 16 48 30 57 30 8 0 27 12 41 26 14 14 70 59 125 100 151
112 153 113 260 203 160 135 545 535 545 566 0 4 15 25 33 46 17 21 46 56 62
79 17 22 45 59 63 81 17 23 32 47 32 54 0 7 7 16 15 19 9 3 22 20 30 38 7 18
22 44 33 58 10 14 38 59 61 102 23 42 48 82 56 88 8 7 15 20 15 29 0 9 11 33
26 54 14 21 32 56 40 79 8 24 23 52 33 63 15 17 91 183 91 199 0 4 18 44 40
91 22 47 40 91 40 98 0 7 11 41 24 74 14 33 30 82 37 109 6 27 17 56 24 64 7
8 16 37 20 64 4 28 15 72 26 98 10 27 19 60 19 73 0 14 8 57 19 97 23 91 44
216 72 431 20 156 21 198 16 565 -3 241 -9 409 -15 427 -6 17 -16 77 -22 135
-6 58 -15 121 -20 140 -5 19 -18 72 -29 116 -12 45 -21 97 -21 115 0 19 -6 43
-14 54 -7 11 -16 34 -20 50 -11 49 -66 228 -81 260 -25 56 -35 98 -35 145 0
41 6 53 55 113 30 36 55 70 55 73 0 17 35 44 56 44 18 0 30 -12 50 -52z
m-8679 -915 c17 -15 93 -203 93 -229 0 -5 14 -36 32 -69 l32 -60 1 -425 c2
-388 4 -435 23 -544 12 -65 22 -131 22 -146 0 -15 9 -62 20 -105 11 -43 20
-95 20 -115 0 -20 4 -40 9 -46 9 -9 45 -141 62 -224 5 -25 13 -54 19 -65 5
-11 28 -76 50 -145 22 -69 47 -137 55 -152 8 -14 15 -32 15 -40 0 -16 70 -180
113 -263 17 -33 46 -89 64 -125 78 -150 126 -236 143 -255 10 -11 25 -36 35
-55 10 -19 24 -43 32 -52 8 -9 22 -30 31 -46 10 -16 38 -58 64 -93 26 -35 60
-81 75 -102 44 -60 216 -267 272 -327 28 -30 51 -60 51 -67 0 -7 11 -15 25
-19 14 -3 25 -10 25 -14 0 -7 33 -40 155 -155 76 -72 220 -193 342 -286 35
-27 55 -51 61 -73 10 -35 0 -218 -13 -248 -13 -32 -58 -21 -131 32 -116 85
-204 153 -266 205 -33 28 -74 60 -91 73 -18 12 -60 52 -93 87 -34 36 -65 65
-68 65 -3 0 -51 46 -106 103 -55 56 -111 113 -125 127 -14 14 -25 31 -25 37 0
7 -9 18 -21 26 -20 14 -77 80 -129 147 -14 18 -39 49 -55 69 -17 20 -38 47
-48 61 -9 14 -29 43 -45 65 -62 88 -142 205 -142 209 0 3 -20 34 -45 70 -24
36 -51 80 -60 98 -8 18 -29 58 -46 88 -111 197 -279 571 -279 620 0 9 -6 24
-14 35 -7 11 -30 72 -50 135 -20 63 -41 129 -47 145 -14 40 -82 338 -102 445
-39 210 -71 589 -69 810 2 167 20 473 33 560 6 36 15 101 20 145 13 99 35 125
76 88z m-606 -685 c10 -15 12 -149 3 -172 -6 -14 -81 -16 -755 -16 -684 0
-750 1 -756 16 -3 9 -7 50 -7 91 -1 58 3 77 15 86 24 18 1489 13 1500 -5z
m11751 0 c4 -7 7 -51 6 -98 l-3 -85 -755 0 -755 0 -3 82 c-1 46 1 91 7 100 8
17 52 18 752 16 587 -2 744 -5 751 -15z m-794 -928 c78 -11 180 -58 226 -103
39 -40 75 -114 83 -175 8 -56 -21 -152 -59 -194 -34 -38 -35 -46 -5 -52 12 -3
36 -8 52 -11 17 -4 60 -10 96 -13 95 -10 113 -28 104 -107 -3 -33 -13 -71 -22
-84 -15 -23 -18 -23 -95 -17 -45 4 -89 11 -98 16 -10 6 -63 17 -117 25 -54 8
-120 19 -148 25 -27 5 -104 19 -170 30 -66 11 -142 25 -168 30 -27 6 -59 10
-72 10 -13 0 -35 10 -49 23 -24 22 -25 23 -11 84 9 45 20 69 41 86 l27 24 -17
63 c-24 86 -9 169 41 235 20 25 39 45 44 45 4 0 20 11 36 24 49 41 155 55 281
36z m-11451 -25 c76 -17 78 -18 113 -43 14 -9 42 -27 62 -40 130 -83 214 -356
163 -529 -26 -88 -129 -193 -189 -193 -9 0 -21 12 -27 28 -6 15 -20 45 -32 68
-25 51 -19 93 22 140 43 48 58 129 36 193 -19 57 -81 141 -104 141 -8 0 -35 7
-59 17 -80 30 -255 -11 -348 -82 -87 -67 -112 -197 -54 -288 17 -26 30 -54 30
-62 0 -16 45 -53 75 -61 11 -3 34 0 49 6 27 10 28 13 21 53 -19 106 -21 124
-15 147 7 28 52 48 109 49 47 1 71 -23 71 -70 0 -21 5 -50 11 -66 6 -15 15
-50 20 -78 5 -27 16 -74 25 -102 25 -80 12 -94 -113 -122 -54 -12 -126 -29
-160 -37 -80 -21 -110 -11 -172 56 -66 71 -89 103 -97 136 -4 16 -15 38 -25
49 -9 11 -25 58 -35 105 -36 182 4 350 105 437 95 82 201 131 323 152 81 13
121 12 195 -4z m11263 -684 c71 -18 142 -50 164 -74 12 -13 27 -26 32 -28 15
-7 64 -77 81 -117 34 -82 23 -229 -24 -312 -44 -78 -121 -149 -180 -166 -182
-53 -373 21 -469 183 -27 45 -29 54 -28 153 1 95 4 111 32 170 32 66 101 150
124 150 7 0 27 7 43 16 59 32 154 43 225 25z m-11069 -211 c27 -53 49 -109 49
-128 0 -28 -35 -59 -74 -67 -17 -4 -49 -15 -71 -25 -22 -10 -67 -28 -100 -40
-33 -11 -81 -32 -108 -45 -26 -14 -53 -25 -60 -25 -6 0 -24 -15 -38 -33 -31
-39 -29 -77 6 -121 22 -27 28 -29 97 -30 56 0 88 6 138 26 36 14 97 38 135 53
39 15 87 34 108 43 35 14 39 14 65 -5 28 -21 50 -76 51 -129 1 -32 -19 -57
-54 -67 -11 -3 -56 -20 -100 -37 -44 -17 -94 -35 -110 -39 -17 -4 -39 -13 -50
-19 -25 -14 -126 -55 -228 -92 l-78 -28 -15 24 c-9 13 -24 50 -34 81 -16 50
-16 60 -4 74 22 24 17 37 -25 63 -51 33 -88 99 -103 185 -11 66 -11 73 12 120
26 57 103 117 180 140 25 8 79 27 120 44 41 16 95 38 120 47 25 9 61 24 80 33
41 20 80 18 91 -3z m10731 -479 c155 -68 296 -137 318 -157 9 -7 33 -19 55
-26 23 -8 45 -24 53 -38 13 -22 12 -31 -11 -81 -15 -31 -33 -62 -42 -69 -21
-18 -92 -7 -119 19 -12 12 -27 21 -33 21 -6 0 -72 32 -148 70 -114 59 -145 70
-178 68 -35 -3 -43 -8 -63 -43 -30 -51 -29 -67 1 -119 27 -47 74 -80 204 -145
46 -24 91 -47 100 -52 9 -5 28 -13 44 -19 16 -6 34 -24 44 -44 15 -33 15 -36
-3 -63 -10 -15 -23 -41 -29 -58 -18 -54 -45 -47 -288 76 -122 61 -240 122
-262 135 -22 13 -51 29 -65 35 -82 37 -218 106 -232 118 -24 19 -23 64 1 85
11 10 22 29 26 44 12 47 21 51 73 37 26 -7 81 -32 122 -54 87 -47 125 -53 117
-18 -18 78 -17 82 21 157 30 60 47 81 86 108 41 27 57 32 106 32 35 0 76 -8
102 -19z m-10212 -101 c58 -111 57 -107 30 -135 -13 -14 -31 -25 -41 -25 -9 0
-22 -7 -29 -15 -31 -38 -85 -5 -129 79 -22 42 -22 47 -8 69 20 31 94 67 131
64 21 -1 33 -11 46 -37z m-236 -105 c6 -11 21 -36 33 -56 27 -41 29 -71 8 -89
-8 -7 -41 -25 -72 -41 -32 -16 -83 -42 -113 -58 -30 -16 -68 -35 -85 -43 -16
-8 -87 -45 -157 -81 -69 -37 -138 -67 -152 -67 -22 0 -31 11 -62 75 -43 87
-42 90 45 132 31 15 67 35 80 45 13 10 32 18 42 18 9 0 30 10 46 23 15 12 78
46 138 75 61 30 126 62 145 73 44 23 89 21 104 -6z m291 -209 c19 -8 35 -19
35 -24 0 -5 20 -17 45 -26 26 -10 45 -24 45 -33 0 -22 -50 -65 -108 -92 -59
-28 -69 -48 -48 -90 28 -54 15 -91 -31 -91 -13 0 -26 -7 -29 -15 -10 -25 -40
-17 -73 20 -30 34 -72 47 -86 25 -3 -5 -25 -18 -48 -28 -23 -10 -48 -26 -56
-35 -7 -10 -19 -17 -25 -17 -6 0 -37 -16 -69 -36 -59 -36 -70 -60 -42 -84 8
-7 15 -24 15 -39 0 -31 -54 -78 -100 -87 -26 -6 -35 -1 -70 37 -22 24 -40 51
-40 59 0 8 -9 32 -20 53 -11 20 -20 44 -20 52 0 18 42 105 51 105 3 0 24 14
45 31 22 17 65 45 97 63 33 17 73 39 90 48 18 9 37 21 43 26 6 6 25 17 42 26
18 9 32 22 33 29 0 6 1 28 2 47 3 64 104 105 152 60 20 -19 21 -19 60 5 48 28
65 30 110 11z m9623 -127 c53 -18 58 -40 22 -107 -43 -79 -60 -92 -125 -90
-44 1 -60 -3 -89 -26 -20 -15 -45 -45 -56 -66 -22 -44 -27 -119 -8 -138 19
-19 59 -14 94 13 18 14 35 25 38 25 3 0 30 24 59 53 137 132 181 157 298 164
81 5 88 4 138 -25 116 -66 176 -192 145 -308 -8 -30 -14 -64 -14 -75 0 -12 -9
-33 -19 -48 -11 -15 -22 -38 -26 -52 -5 -21 -87 -113 -145 -162 -39 -34 -117
-50 -215 -45 -145 8 -162 27 -115 131 37 82 54 93 121 77 64 -16 88 -9 137 39
92 90 109 200 38 247 -37 23 -62 13 -141 -56 -39 -34 -82 -67 -96 -75 -15 -8
-29 -22 -31 -32 -3 -10 -18 -25 -34 -33 -16 -8 -40 -22 -54 -32 -14 -9 -52
-22 -85 -27 -106 -19 -184 8 -249 88 -41 50 -45 59 -51 131 -6 63 -3 89 14
145 12 38 30 74 40 81 10 8 22 26 26 41 8 32 73 103 123 135 75 47 174 57 260
27z m-9568 -314 c45 -23 136 -114 145 -145 4 -14 13 -32 20 -40 21 -24 55
-107 55 -132 0 -49 -23 -102 -62 -144 -22 -24 -45 -44 -50 -44 -6 0 -22 -12
-37 -26 -30 -30 -175 -134 -187 -134 -14 0 -84 -73 -84 -87 0 -7 -11 -19 -25
-25 -21 -10 -30 -8 -53 9 -43 32 -72 82 -72 124 0 43 -27 79 -58 79 -10 0 -31
14 -45 30 -15 17 -32 30 -37 30 -5 0 -23 27 -40 60 -23 46 -30 72 -30 117 1
75 22 112 89 163 45 34 60 40 102 40 53 0 102 -16 139 -46 12 -11 43 -36 69
-56 25 -21 63 -54 83 -73 41 -39 72 -45 88 -15 18 33 1 87 -36 120 -28 24 -44
30 -79 30 -40 0 -45 3 -51 28 -4 15 -18 40 -31 55 -53 65 -10 111 98 103 31
-2 71 -12 89 -21z m392 -492 c40 -40 48 -53 48 -84 0 -36 2 -38 41 -44 53 -9
111 -61 129 -116 l14 -42 -34 -28 c-65 -55 -139 -51 -168 8 -27 58 -66 64
-142 25 -63 -33 -63 -34 -150 -111 -191 -171 -179 -167 -252 -83 -56 62 -53
96 13 153 28 24 65 58 83 74 17 17 52 46 76 65 75 59 173 141 222 187 26 24
53 43 60 43 7 0 34 -21 60 -47z m8692 -173 c14 -5 72 -57 128 -116 57 -58 140
-145 186 -191 45 -47 82 -92 82 -101 0 -25 -104 -122 -131 -122 -18 0 -45 21
-97 78 -85 90 -72 77 -170 175 -70 69 -82 77 -117 77 -50 0 -85 -31 -85 -76 0
-52 28 -103 93 -171 34 -36 97 -101 140 -145 42 -44 77 -86 77 -93 0 -7 -24
-38 -54 -69 -75 -78 -85 -76 -182 32 -44 48 -118 124 -166 170 -77 74 -90 82
-125 82 -34 0 -40 -4 -60 -40 -13 -21 -23 -48 -23 -59 0 -25 36 -89 69 -121
54 -53 236 -253 245 -268 7 -11 1 -22 -23 -41 -17 -14 -31 -31 -31 -38 0 -37
-94 -57 -123 -25 -106 115 -248 264 -319 335 -104 105 -110 126 -52 192 32 36
40 40 82 40 l47 0 3 39 c4 48 39 104 90 144 48 39 82 52 131 52 46 0 56 11 65
67 12 78 75 157 156 195 23 10 135 9 164 -2z m-7972 -207 c29 -25 56 -54 60
-63 8 -21 -12 -62 -45 -92 -52 -50 -157 -176 -157 -191 0 -8 30 -42 68 -75
155 -140 182 -154 203 -108 6 13 22 29 35 35 13 6 24 15 24 20 0 5 18 31 41
58 22 26 51 60 64 76 30 36 59 34 105 -5 20 -18 47 -41 60 -51 36 -30 20 -67
-74 -176 -71 -82 -107 -122 -200 -221 -7 -8 -31 -37 -52 -65 -55 -74 -186
-220 -200 -223 -6 -2 -16 -14 -22 -27 -16 -35 -45 -32 -103 11 -85 62 -91 103
-26 169 61 63 161 174 170 192 15 26 -2 57 -56 101 -28 23 -74 62 -102 87 -57
52 -89 56 -114 15 -9 -14 -37 -48 -62 -75 -26 -28 -66 -75 -91 -105 -60 -75
-79 -76 -152 -10 -63 58 -72 93 -35 126 12 10 62 66 111 124 49 58 105 124
126 147 20 23 51 59 67 82 17 22 38 43 48 46 9 4 17 10 17 15 0 10 139 174
176 208 36 32 57 28 116 -25z m7238 -563 c191 -122 255 -350 146 -518 -36 -56
-111 -119 -171 -144 -167 -69 -315 -25 -423 125 -56 79 -61 91 -72 164 -27
192 47 313 240 394 37 16 62 19 138 15 83 -4 98 -8 142 -36z m-836 -152 c9
-12 16 -28 16 -34 0 -21 53 -94 67 -94 8 0 28 7 45 16 62 32 116 -30 109 -127
-1 -9 -14 -22 -31 -29 -21 -9 -30 -19 -30 -35 0 -19 46 -108 78 -148 5 -7 20
-32 33 -57 45 -87 86 -113 109 -70 23 44 82 13 109 -57 19 -48 10 -73 -39
-109 -103 -76 -210 -78 -267 -6 -16 21 -49 71 -74 112 -24 41 -52 89 -61 105
-10 17 -27 49 -38 72 -20 40 -49 61 -69 48 -22 -13 -77 22 -95 62 -17 39 -17
41 4 82 l21 42 -21 34 c-24 39 -20 90 11 129 11 13 19 28 19 32 0 4 11 22 26
41 21 27 28 31 44 23 10 -6 26 -20 34 -32z m-5801 -52 c97 -47 182 -127 192
-181 4 -22 11 -42 15 -45 19 -12 -47 -168 -97 -230 -13 -15 -23 -31 -23 -35 0
-3 -20 -35 -45 -70 -25 -35 -58 -94 -73 -131 -29 -70 -49 -92 -73 -80 -73 35
-95 54 -117 100 -18 38 -27 47 -42 43 -32 -8 -126 21 -177 55 -59 40 -68 50
-93 115 -17 46 -18 59 -8 110 10 48 20 66 58 104 41 41 54 48 101 54 70 8 156
-13 316 -76 82 -33 83 75 0 117 -22 12 -44 14 -81 9 -29 -3 -64 -1 -80 4 -29
12 -96 79 -96 97 0 11 59 62 90 76 8 5 48 6 88 4 57 -4 88 -12 145 -40z m924
-221 c19 -8 44 -15 54 -15 10 0 26 -11 35 -25 19 -29 16 -46 -33 -176 -37 -99
-35 -104 68 -106 115 -2 173 -31 227 -111 35 -53 37 -62 41 -146 4 -99 -12
-198 -38 -236 -10 -14 -25 -41 -34 -60 -57 -124 -240 -187 -370 -127 -30 13
-63 37 -73 51 -50 71 -52 73 -69 52 -8 -10 -16 -23 -17 -28 -5 -15 -121 21
-140 44 -29 33 -22 74 35 208 6 14 16 48 22 75 16 67 51 167 85 240 15 33 31
76 34 95 17 81 78 246 97 263 26 21 30 21 76 2z m-510 -27 c15 -6 49 -32 75
-56 41 -40 51 -44 81 -39 38 6 103 -19 136 -52 35 -35 27 -71 -29 -126 -54
-53 -59 -53 -120 -6 -54 42 -67 39 -131 -30 -33 -34 -59 -69 -59 -78 0 -9 -10
-32 -22 -51 -12 -19 -43 -75 -68 -125 -39 -75 -52 -91 -73 -93 -34 -4 -145 45
-152 67 -7 23 10 78 38 120 13 20 27 46 31 59 4 12 13 28 20 34 7 7 50 90 95
183 46 94 90 178 98 188 19 20 41 22 80 5z m5200 -98 c35 -17 66 -37 69 -44 8
-21 -11 -51 -53 -83 -34 -26 -42 -28 -137 -28 -107 0 -130 -8 -163 -55 -13
-19 -13 -24 -2 -31 22 -14 100 -10 164 7 33 9 98 17 145 18 77 1 89 -2 127
-26 53 -35 93 -101 93 -155 0 -63 -26 -135 -64 -173 -62 -62 -70 -68 -141
-100 -124 -56 -240 -57 -330 -4 -83 50 -70 85 53 154 l42 24 20 -22 c17 -18
32 -22 76 -22 62 0 89 11 121 49 49 58 14 91 -70 67 -29 -9 -102 -18 -163 -22
-98 -6 -115 -5 -156 14 -63 28 -108 102 -108 180 0 60 8 78 56 139 39 48 97
83 186 111 120 39 155 40 235 2z m-1416 -195 c75 -27 179 -135 179 -186 0 -30
-31 -59 -63 -59 -10 0 -31 -7 -47 -16 -37 -22 -72 -12 -111 31 -74 81 -220 75
-286 -11 -53 -70 -63 -135 -39 -257 8 -40 17 -89 20 -109 8 -42 80 -129 129
-155 36 -18 98 -12 161 16 32 14 48 29 64 62 12 24 26 51 31 59 5 8 13 29 18
45 l9 30 84 -3 c66 -3 89 -8 104 -22 19 -19 19 -21 2 -82 -34 -122 -95 -202
-191 -249 -118 -58 -299 -63 -405 -11 -112 55 -220 204 -241 332 -20 126 -22
223 -4 285 19 63 81 185 95 185 5 0 22 13 37 29 34 36 110 75 183 96 65 18
206 13 271 -10z m831 -2 c15 -18 44 -96 77 -208 9 -33 22 -69 28 -80 6 -11 14
-40 18 -65 4 -25 13 -52 20 -60 23 -28 48 -115 49 -170 1 -52 0 -55 -29 -64
-45 -13 -49 -15 -68 -28 -14 -11 -23 -10 -48 5 -44 25 -57 22 -81 -18 -38 -66
-172 -116 -254 -96 -79 20 -111 48 -151 131 -20 41 -38 86 -40 100 -2 14 -13
38 -23 55 -10 16 -21 50 -25 75 -4 25 -18 65 -30 90 -29 57 -41 131 -26 158 7
13 26 24 49 28 20 3 47 12 59 20 12 8 29 14 37 14 19 0 56 -47 56 -71 0 -27
85 -279 117 -345 24 -51 33 -60 63 -65 49 -10 107 21 127 68 18 43 9 105 -32
218 -14 39 -32 94 -40 123 -9 30 -20 62 -25 72 -6 10 -10 34 -10 53 0 33 2 35
58 54 74 26 105 27 124 6z m-3296 -184 c148 -20 249 -99 292 -228 26 -76 30
-195 8 -226 -7 -11 -16 -37 -20 -58 -7 -37 -78 -124 -124 -151 -10 -6 -32 -20
-48 -31 -24 -17 -44 -20 -144 -20 -106 0 -119 2 -168 27 -120 62 -177 135
-193 248 -21 141 32 299 124 371 62 49 94 63 189 78 4 1 41 -4 84 -10z m544
-119 c53 -15 66 -26 52 -43 -7 -9 -16 -87 -22 -208 -14 -271 -3 -305 93 -296
79 7 98 28 118 135 10 50 21 151 25 224 3 73 11 139 17 146 12 15 124 16 162
2 l27 -10 -7 -163 c-8 -207 -34 -478 -48 -495 -8 -10 -31 -13 -85 -10 -73 3
-91 12 -105 52 -3 8 -10 7 -23 -2 -42 -27 -73 -36 -150 -40 -94 -5 -139 12
-192 72 -44 50 -55 95 -48 201 3 50 8 160 12 245 5 139 8 157 27 178 23 25 84
30 147 12z m949 -31 c27 -6 54 -16 60 -22 12 -16 -12 -124 -33 -145 -15 -15
-97 -19 -117 -6 -5 3 -22 -8 -38 -25 -36 -38 -41 -75 -41 -302 0 -210 0 -209
-107 -209 -104 0 -99 -17 -106 355 -5 231 -4 321 4 331 17 21 133 18 169 -3
27 -15 30 -15 57 3 26 17 60 30 90 33 7 0 34 -4 62 -10z"/>
<path d="M11785 11858 c-87 -13 -212 -71 -243 -113 -49 -66 -77 -138 -77 -196
0 -48 5 -64 35 -107 46 -68 102 -98 200 -107 41 -4 102 -13 135 -21 33 -8 77
-14 97 -14 25 0 47 -8 68 -27 31 -26 32 -29 25 -82 -17 -144 -16 -190 5 -268
29 -100 38 -118 66 -134 20 -10 32 -9 77 6 74 25 117 69 170 172 l45 89 20
220 c13 150 18 265 15 366 l-5 147 -37 17 c-68 33 -191 51 -386 58 -77 2 -171
0 -210 -6z"/>
<path d="M7010 9535 c-13 -14 -27 -25 -31 -25 -33 0 -230 -178 -265 -239 -8
-14 -30 -46 -49 -71 -40 -52 -115 -202 -115 -231 0 -15 7 -19 34 -19 18 0 39
7 46 15 6 8 22 17 33 21 59 18 255 191 277 243 7 17 20 33 30 36 10 3 24 20
31 38 7 18 18 39 25 47 20 25 76 168 72 187 -5 30 -59 29 -88 -2z"/>
<path d="M6530 5265 c-30 -19 -58 -35 -64 -35 -5 0 -18 -8 -28 -17 -10 -9 -40
-30 -66 -47 -123 -79 -152 -100 -152 -111 0 -7 -14 -19 -31 -28 -17 -8 -66
-57 -110 -108 -43 -52 -88 -103 -99 -114 -11 -12 -20 -26 -20 -34 0 -7 -13
-38 -29 -69 -62 -120 -80 -163 -87 -209 -4 -26 -11 -59 -16 -73 -11 -28 -23
-132 -38 -325 -8 -104 -7 -147 5 -215 17 -96 57 -199 95 -242 122 -141 237
-233 363 -291 224 -102 607 -138 675 -64 48 53 51 71 37 222 -8 77 -16 156
-19 175 -3 19 -10 76 -16 125 -6 50 -15 106 -20 125 -5 19 -16 87 -25 150 -9
63 -20 131 -25 150 -5 19 -16 82 -25 140 -9 58 -21 121 -26 140 -22 86 -38
159 -45 205 -3 28 -13 79 -21 115 -8 36 -19 88 -25 115 -17 82 -82 305 -98
335 -15 27 -26 25 -90 -15z"/>
<path d="M11290 10975 c-16 -20 -6 -45 19 -45 21 0 54 38 45 52 -9 13 -51 9
-64 -7z"/>
<path d="M1164 10075 c-7 -18 3 -35 22 -35 20 0 30 30 13 41 -20 12 -29 11
-35 -6z"/>
<path d="M13227 6469 c-140 -85 -78 -230 111 -259 63 -10 76 -9 97 4 13 9 30
16 38 16 25 0 67 54 67 87 0 57 -19 91 -70 122 -40 25 -62 30 -136 35 -59 5
-95 3 -107 -5z"/>
<path d="M13068 5764 c-47 -14 -77 -44 -97 -97 -13 -32 3 -94 32 -125 64 -70
212 -99 275 -54 67 48 83 136 35 193 -27 31 -153 100 -183 98 -8 0 -36 -7 -62
-15z"/>
<path d="M2432 4094 c-28 -19 -29 -63 -2 -97 11 -14 20 -30 20 -35 0 -14 26
-22 70 -22 47 0 82 15 98 40 16 26 6 48 -32 67 -17 9 -41 26 -53 39 -26 28
-68 31 -101 8z"/>
<path d="M10858 2817 c-20 -12 -42 -32 -48 -45 -13 -29 -13 -86 0 -132 13 -49
113 -148 157 -156 59 -11 96 3 131 48 44 57 45 122 3 198 -56 102 -157 138
-243 87z"/>
<path d="M4205 2432 c-33 -7 -45 -23 -45 -59 0 -49 45 -93 96 -93 40 0 98 31
114 60 20 37 11 48 -57 70 -87 28 -84 27 -108 22z"/>
<path d="M5430 2089 c-44 -16 -110 -146 -110 -218 0 -41 22 -101 48 -126 27
-28 63 -32 121 -14 65 19 115 122 116 236 0 71 -1 73 -35 102 -37 32 -88 39
-140 20z"/>
<path d="M6129 1879 c-14 -5 -31 -20 -37 -32 -7 -12 -22 -34 -34 -49 -17 -22
-22 -44 -26 -111 -4 -79 -3 -84 23 -115 65 -77 141 -80 212 -7 68 71 82 191
32 268 -13 20 -34 41 -47 47 -28 12 -88 12 -123 -1z"/>
<path d="M14976 6944 c-3 -9 -6 -46 -6 -82 0 -68 -29 -316 -55 -472 -8 -47
-17 -110 -21 -140 -3 -30 -12 -80 -20 -110 -8 -30 -14 -70 -14 -90 0 -20 -6
-56 -14 -81 -8 -24 -24 -93 -36 -154 -11 -60 -28 -123 -36 -138 -8 -16 -14
-38 -14 -50 0 -37 -73 -283 -139 -472 -6 -16 -25 -73 -41 -125 -17 -52 -46
-133 -64 -180 -18 -47 -55 -140 -81 -208 -27 -67 -54 -127 -62 -133 -7 -6 -13
-22 -13 -34 0 -12 -8 -33 -19 -46 -10 -13 -22 -35 -26 -49 -12 -40 -191 -401
-219 -443 -14 -21 -26 -43 -26 -49 0 -6 -6 -19 -14 -27 -8 -9 -33 -52 -56 -96
-23 -44 -52 -96 -64 -115 -13 -19 -54 -84 -91 -145 -38 -60 -81 -125 -97 -143
-15 -18 -28 -39 -28 -46 0 -7 -11 -23 -25 -36 -14 -13 -25 -28 -25 -32 0 -12
-131 -189 -153 -207 -9 -7 -17 -19 -17 -27 0 -7 -15 -29 -32 -48 -18 -18 -48
-56 -67 -82 -19 -27 -40 -53 -45 -59 -6 -5 -24 -28 -40 -49 -16 -22 -50 -62
-74 -90 -24 -28 -67 -78 -96 -111 -28 -33 -68 -77 -88 -97 -21 -20 -38 -40
-38 -44 0 -12 -453 -453 -575 -559 -38 -33 -85 -75 -104 -92 -19 -18 -39 -33
-43 -33 -4 0 -16 -8 -26 -18 -44 -42 -111 -96 -158 -127 -29 -19 -54 -41 -57
-49 -4 -9 -21 -23 -40 -33 -19 -10 -92 -62 -163 -115 -71 -54 -136 -98 -145
-98 -8 0 -25 -10 -36 -22 -12 -13 -70 -54 -129 -91 -60 -37 -132 -82 -160
-100 -28 -18 -82 -48 -119 -67 -38 -19 -76 -43 -87 -53 -10 -9 -26 -17 -37
-17 -10 0 -23 -6 -29 -13 -6 -7 -76 -46 -154 -86 -79 -41 -156 -81 -173 -89
-66 -34 -102 -50 -137 -61 -20 -7 -42 -19 -48 -27 -7 -7 -24 -14 -38 -14 -14
0 -33 -6 -41 -14 -17 -15 -251 -116 -269 -116 -5 0 -40 -13 -78 -29 -97 -40
-246 -93 -404 -143 -52 -16 -111 -36 -130 -43 -54 -19 -182 -54 -231 -61 -24
-4 -49 -10 -54 -15 -12 -9 -102 -29 -288 -64 -71 -14 -133 -27 -138 -31 -6 -3
-45 -10 -87 -14 -42 -4 -104 -15 -137 -23 -33 -8 -94 -18 -135 -21 -41 -4 -88
-11 -105 -16 -16 -6 -91 -15 -165 -20 -74 -6 -180 -15 -235 -20 -172 -17 -973
-14 -1190 5 -228 19 -464 48 -600 75 -55 10 -129 24 -165 31 -36 6 -99 17
-140 24 -149 27 -478 108 -584 145 -33 11 -68 20 -79 20 -11 0 -34 8 -51 19
-17 10 -52 22 -78 25 -26 4 -50 11 -53 15 -2 5 -26 14 -52 21 -27 7 -65 21
-85 32 -21 10 -44 18 -53 18 -14 0 -190 64 -260 95 -179 79 -263 115 -272 115
-5 0 -18 9 -28 20 -10 11 -27 20 -37 20 -19 0 -225 98 -318 152 -8 4 -42 22
-75 38 -92 46 -137 72 -157 92 -10 10 -27 18 -37 18 -11 0 -22 4 -25 9 -6 8
-113 72 -190 113 -18 9 -38 23 -45 32 -8 9 -17 16 -21 16 -8 0 -97 56 -135 85
-11 8 -36 25 -55 38 -44 29 -146 101 -213 149 -29 21 -73 52 -100 69 -26 18
-47 38 -47 45 0 7 -10 16 -22 20 -22 7 -120 83 -243 190 -38 33 -83 71 -99 85
-98 84 -226 202 -226 209 0 4 -16 17 -35 29 -19 11 -35 27 -35 35 0 9 -10 21
-22 27 -12 6 -60 53 -107 103 -47 49 -102 107 -121 127 -32 34 -109 118 -178
193 -61 66 -321 392 -335 419 -12 23 -25 40 -62 81 -40 45 -264 378 -282 419
-7 15 -19 30 -27 33 -9 3 -18 22 -22 41 -4 19 -12 37 -19 39 -7 3 -34 42 -61
87 -26 45 -60 102 -76 126 -15 25 -28 52 -29 60 0 9 -20 50 -45 91 -45 76
-244 474 -244 488 0 12 -71 185 -81 198 -5 6 -16 31 -24 55 -8 24 -22 58 -29
74 -19 41 -79 206 -101 280 -10 33 -26 78 -36 100 -9 22 -24 72 -33 110 -10
39 -21 77 -25 85 -5 9 -12 36 -16 60 -4 25 -16 67 -26 93 -11 26 -19 65 -19
86 0 22 -6 44 -15 51 -8 7 -15 20 -15 29 0 10 -9 51 -20 92 -11 41 -20 92 -20
115 0 22 -7 49 -15 60 -8 10 -15 30 -15 43 0 14 -11 81 -24 150 -45 238 -85
544 -86 657 0 73 -9 124 -21 124 -5 0 -9 -1494 -9 -3470 l0 -3470 7500 0 7500
0 0 3480 c0 2035 -4 3480 -9 3480 -5 0 -12 -7 -15 -16z"/>
</g>
</svg>
